<?xml version="1.0" encoding="UTF-8"?>
<svg width="481px" height="361px" viewBox="0 0 481 361" version="1.1" xmlns="http://www.w3.org/2000/svg" xmlns:xlink="http://www.w3.org/1999/xlink">
    <!-- Generator: Sketch 52.3 (67297) - http://www.bohemiancoding.com/sketch -->
    <title>fermes-valens_icons</title>
    <desc>Created with Sketch.</desc>
    <defs>
        <polygon id="path-1" points="0 0 55.4365054 0 55.4365054 29.727731 0 29.727731"></polygon>
        <polygon id="path-3" points="0 0.0746383582 15.6857293 0.0746383582 15.6857293 2.54047115 0 2.54047115"></polygon>
        <polygon id="path-5" points="0.0474928433 0.0754862022 30.9687065 0.0754862022 30.9687065 31 0.0474928433 31"></polygon>
        <polygon id="path-7" points="0.0194205882 0.026954023 2.96206765 0.026954023 2.96206765 6.92722414 0.0194205882 6.92722414"></polygon>
        <polygon id="path-9" points="0 0.109090909 40.9059971 0.109090909 40.9059971 47.8820639 0 47.8820639"></polygon>
        <polygon id="path-11" points="0 0 28.0208153 0 28.0208153 28.0208153 0 28.0208153"></polygon>
        <polygon id="path-13" points="0 0 28.0208153 0 28.0208153 28.0208153 0 28.0208153"></polygon>
    </defs>
    <g id="fermes-valens_icons" stroke="none" stroke-width="1" fill="none" fill-rule="evenodd">
        <g id="Group-9" transform="translate(0.000000, 12.000000)">
            <g id="Group-3" transform="translate(6.461972, 0.050451)">
                <mask id="mask-2" fill="white">
                    <use xlink:href="#path-1"></use>
                </mask>
                <g id="Clip-2"></g>
                <path d="M52.992151,23.8676903 L51.3832073,23.8676903 C50.840751,21.8924927 49.0296524,20.4366476 46.8837538,20.4366476 C44.7377679,20.4366476 42.9269313,21.8924927 42.3843876,23.8676903 L41.0614299,23.8676903 L41.0614299,8.79739311 L46.4832862,8.79739311 L52.9920637,16.2243942 L52.992151,23.8676903 Z M46.8837538,27.2987329 C45.6711735,27.2987329 44.6848496,26.3126617 44.6848496,25.1006067 C44.6848496,23.8886389 45.6711735,22.9025677 46.8837538,22.9025677 C48.0962468,22.9025677 49.0827454,23.8886389 49.0827454,25.1006067 C49.0827454,26.3126617 48.0964214,27.2987329 46.8837538,27.2987329 Z M25.92592,23.8676903 C25.3834637,21.8924927 23.5723651,20.4366476 21.4264665,20.4366476 C19.2804806,20.4366476 17.4696439,21.8924927 16.9271003,23.8676903 L15.5860665,23.8676903 L15.5860665,2.50258025 L38.5944411,2.50258025 L38.5944411,23.8676903 L25.92592,23.8676903 Z M21.4267285,27.2987329 C20.2141482,27.2987329 19.2277369,26.3126617 19.2277369,25.1006067 C19.2277369,23.8886389 20.2141482,22.9025677 21.4267285,22.9025677 C22.6392214,22.9025677 23.62572,23.8886389 23.62572,25.1006067 C23.62572,26.3126617 22.6392214,27.2987329 21.4267285,27.2987329 Z M55.1534186,14.9483585 L47.9707623,6.75210483 C47.7364721,6.48500931 47.3983538,6.33156032 47.042858,6.33156032 L41.0618665,6.33156032 L41.0618665,1.26975114 C41.0618665,0.588832142 40.5095425,0.0368347412 39.8283285,0.0368347412 L14.3527904,0.0368347412 C13.6716637,0.0368347412 13.1193397,0.588832142 13.1193397,1.26975114 L13.1193397,2.93342452 L1.25612,2.93342452 C0.574993239,2.93342452 0.0226692958,3.48542192 0.0226692958,4.16634091 C0.0226692958,4.8473472 0.574993239,5.39925731 1.25612,5.39925731 L13.1193397,5.39925731 L13.1193397,21.3817817 L5.9783369,21.3817817 C5.29721014,21.3817817 4.7448862,21.9337791 4.7448862,22.6146981 C4.7448862,23.2956171 5.29721014,23.8476145 5.9783369,23.8476145 L13.1193397,23.8476145 L13.1193397,25.1006067 C13.1193397,25.781613 13.6716637,26.3335231 14.3527904,26.3335231 L16.9273623,26.3335231 C17.4698186,28.3087206 19.2807425,29.7645657 21.4267285,29.7645657 C23.572627,29.7645657 25.383551,28.3087206 25.9260946,26.3335231 L42.3846496,26.3335231 L42.3846496,26.3334358 C42.9271059,28.3086333 44.7380299,29.7644784 46.8840158,29.7644784 C49.0299144,29.7644784 50.8408383,28.3086333 51.383382,26.3334358 L54.2257763,26.3334358 C54.9069031,26.3334358 55.459227,25.7814384 55.459227,25.1005194 L55.459227,15.7606431 C55.4590524,15.46195 55.3503341,15.1731202 55.1534186,14.9483585 Z" id="Fill-1" fill="#000000" mask="url(#mask-2)"></path>
            </g>
            <path d="M8.37639211,21.4320934 L7.71823155,21.4320934 C7.03710479,21.4320934 6.48478085,21.9840908 6.48478085,22.6650098 C6.48478085,23.3460161 7.03710479,23.8979262 7.71823155,23.8979262 L8.37639211,23.8979262 C9.05751887,23.8979262 9.60984282,23.3460161 9.60984282,22.6650098 C9.60984282,21.9840908 9.0576062,21.4320934 8.37639211,21.4320934" id="Fill-4" fill="#000000"></path>
            <g id="Group-8" transform="translate(0.000000, 12.008649)">
                <mask id="mask-4" fill="white">
                    <use xlink:href="#path-3"></use>
                </mask>
                <g id="Clip-7"></g>
                <path d="M14.4522786,0.0746383582 L1.23344197,0.0746383582 C0.552315211,0.0746383582 -8.73239437e-06,0.626635759 -8.73239437e-06,1.30755475 C-8.73239437e-06,1.98856104 0.552315211,2.54047115 1.23344197,2.54047115 L14.4522786,2.54047115 C15.1334054,2.54047115 15.6857293,1.98856104 15.6857293,1.30755475 C15.6857293,0.626635759 15.1334054,0.0746383582 14.4522786,0.0746383582" id="Fill-6" fill="#000000" mask="url(#mask-4)"></path>
            </g>
        </g>
        <g id="Group-15" transform="translate(73.000000, 7.000000)">
            <g id="Group-3" transform="translate(10.000000, 10.000000)">
                <mask id="mask-6" fill="white">
                    <use xlink:href="#path-5"></use>
                </mask>
                <g id="Clip-2"></g>
                <path d="M25.5872099,27.6720301 L17.0887459,19.1727395 C16.8283459,18.9123395 16.4770125,18.7688301 16.1139405,18.7688301 C16.0542552,18.7688301 15.9939912,18.7727155 15.9342232,18.7805688 C15.5090685,18.8363688 15.1343405,19.0867661 14.9201512,19.4581048 L12.0631085,24.4051261 L3.89498053,3.92346747 L24.3744899,12.0927528 L19.4270552,14.9502915 C19.0558819,15.1644808 18.8054845,15.5392088 18.7496845,15.9643635 C18.6938019,16.3891048 18.8385512,16.8157475 19.1416899,17.1188861 L27.6405672,25.6182595 L25.5872099,27.6720301 Z M30.5649005,24.6430408 L22.3613912,16.4392008 L28.2139432,13.0584648 C28.6713379,12.7942621 28.9375245,12.2922275 28.8993325,11.7654755 C28.8614712,11.2385581 28.5260099,10.7798408 28.0353005,10.5842515 L1.93677253,0.173707467 C1.42506587,-0.0305618667 0.841025867,0.0897181333 0.451417867,0.479243467 C0.0618098667,0.868934133 -0.0585528,1.4530568 0.145633867,1.96459813 L10.5546899,28.0661021 C10.7503619,28.5565635 11.2090792,28.8921901 11.7359965,28.9302168 C12.2628312,28.9685741 12.7648659,28.7022221 13.0289859,28.2447448 L16.4091432,22.3921101 L24.6124045,30.5961155 C24.8709032,30.8547795 25.2215752,31.0000248 25.5872099,31.0000248 C25.9528445,31.0000248 26.3034339,30.8547795 26.5618499,30.5961155 L30.5649005,26.5925688 C31.1033085,26.0541608 31.1033085,25.1814488 30.5649005,24.6430408 Z" id="Fill-1" fill="#000000" mask="url(#mask-6)"></path>
            </g>
            <path d="M5.4263025,3.41595887 C4.87110794,2.86134704 3.97171831,2.86134704 3.4162681,3.41595887 C2.86124397,3.97116723 2.86124397,4.87083487 3.4162681,5.42604323 L6.57393185,8.58378547 C6.8514013,8.86109138 7.2152817,9 7.57899166,9 C7.94253118,9 8.30607071,8.86109138 8.58379582,8.58378547 C9.13873473,8.02874755 9.13873473,7.12890947 8.58379582,6.57387155 L5.4263025,3.41595887 Z" id="Fill-4" fill="#000000"></path>
            <path d="M7,13.49991 C7,12.6715142 6.39041711,12 5.63864174,12 L1.36127663,12 C0.609746143,12 0,12.6713343 0,13.49991 C0,14.3282159 0.609582891,15 1.36127663,15 L5.63864174,15 C6.39041711,14.9998201 7,14.3282159 7,13.49991" id="Fill-6" fill="#000000"></path>
            <path d="M6.57420111,17.4161491 L3.41638262,20.5741358 C2.86120579,21.1289161 2.86120579,22.028751 3.41638262,22.583787 C3.69375799,22.8612623 4.05720068,23 4.42115467,23 C4.78476779,23 5.1482957,22.8612623 5.42575628,22.583787 L8.58374521,19.4258855 C9.1387516,18.87102 9.1387516,17.9710146 8.58374521,17.4161491 C8.02899446,16.8612836 7.12937793,16.8612836 6.57420111,17.4161491" id="Fill-8" fill="#000000"></path>
            <g id="Group-12" transform="translate(12.000000, 0.000000)">
                <mask id="mask-8" fill="white">
                    <use xlink:href="#path-7"></use>
                </mask>
                <g id="Clip-11"></g>
                <path d="M1.49065588,6.92722414 C2.30312647,6.92722414 2.96206765,6.32635057 2.96206765,5.58531609 L2.96206765,1.36866092 C2.96206765,0.627867816 2.30321471,0.0269137931 1.49065588,0.0269137931 C0.678097059,0.0269137931 0.0194205882,0.627706897 0.0194205882,1.36866092 L0.0194205882,5.58547701 C0.0194205882,6.32635057 0.677920588,6.92722414 1.49065588,6.92722414" id="Fill-10" fill="#000000" mask="url(#mask-8)"></path>
            </g>
            <path d="M18.4210173,9 C18.7849907,9 19.1486232,8.86151503 19.4260133,8.5838633 L22.5836591,5.426065 C23.1387803,4.87101723 23.1387803,3.97116317 22.5836591,3.41628583 C22.0287936,2.86123806 21.1286178,2.86123806 20.574008,3.41628583 L17.416277,6.57408413 C16.861241,7.12896147 16.861241,8.02898597 17.416277,8.5838633 C17.6937523,8.86151503 18.05747,9 18.4210173,9" id="Fill-13" fill="#000000"></path>
        </g>
        <path d="M142,25 C137.81282,25 134.40625,21.5935 134.40625,17.40625 C134.40625,13.219 137.81282,9.8125 142,9.8125 C146.18718,9.8125 149.59375,13.219 149.59375,17.40625 C149.59375,21.5935 146.18718,25 142,25 M154.727969,30.2720313 C152.767445,28.3115781 150.433914,26.8602578 147.887898,25.9817031 C150.614758,24.1035859 152.40625,20.9604062 152.40625,17.40625 C152.40625,11.6682578 147.737992,7 142,7 C136.262008,7 131.59375,11.6682578 131.59375,17.40625 C131.59375,20.9604062 133.385242,24.1035859 136.112172,25.9817031 C133.566156,26.8602578 131.232625,28.3115781 129.272102,30.2720313 C125.872352,33.6718516 124,38.1920312 124,43 L126.8125,43 C126.8125,34.6255703 133.62557,27.8125 142,27.8125 C150.37443,27.8125 157.1875,34.6255703 157.1875,43 L160,43 C160,38.1920312 158.127648,33.6718516 154.727969,30.2720313" id="Fill-1" fill="#000000"></path>
        <g id="Group-6" transform="translate(170.000000, 0.000000)">
            <g id="Group-3" transform="translate(0.000000, 0.008845)">
                <mask id="mask-10" fill="white">
                    <use xlink:href="#path-9"></use>
                </mask>
                <g id="Clip-2"></g>
                <path d="M31.7845429,39.3906634 C31.4517893,39.3906634 31.1190357,39.5793612 30.976427,39.8624079 L28.0291806,45.0515971 L21.3265719,33.5410319 C21.2790357,33.3995086 21.2314994,33.3051597 21.136427,33.2108108 L20.0906299,31.3710074 L20.4233835,31.229484 L24.3213545,33.1164619 C24.6065719,33.2579853 24.8917893,33.3051597 25.1770067,33.3051597 C25.8425139,33.3051597 26.5080212,32.9749386 26.8407748,32.3616708 L28.9799052,28.5405405 L31.8320791,28.0216216 L38.3445429,39.3906634 L31.7845429,39.3906634 Z M15.6222241,31.3710074 L15.5746878,31.3710074 L13.4830936,27.4555283 C13.1978762,26.9837838 12.7225139,26.6063882 12.1520791,26.5592138 L7.7787458,25.7572482 L8.39671681,21.417199 C8.49178928,20.8511057 8.30164435,20.2378378 7.92135449,19.8604423 L4.97410812,16.6525799 L7.96889072,13.5390663 C8.39671681,13.1144963 8.58686174,12.5484029 8.49178928,11.9823096 L7.96889072,7.68943489 C7.96889072,7.68943489 7.96889072,7.64226044 8.01642696,7.595086 L12.3422241,6.84029484 C12.8651226,6.74594595 13.3880212,6.41572482 13.6732386,5.8968059 L15.812369,2.07567568 L19.71034,3.96265356 C20.2332386,4.24570025 20.8987458,4.24570025 21.4216443,3.96265356 L25.3671516,2.17002457 L25.4146878,2.17002457 L27.506282,6.08550369 C27.7914994,6.55724816 28.2668617,6.93464373 28.7897603,6.98181818 L33.1155574,7.83095823 L32.4975864,12.1710074 C32.4025139,12.7371007 32.5926588,13.3503686 32.9729487,13.7277641 L35.9677313,16.9356265 L32.9254125,20.04914 C32.4975864,20.4737101 32.3074414,21.0398034 32.4025139,21.6058968 L32.9254125,25.9459459 L28.6471516,26.6535627 C28.124253,26.7479115 27.6013545,27.0781327 27.3161371,27.5970516 L25.1770067,31.4181818 L21.2790357,29.5312039 C20.7561371,29.2481572 20.0906299,29.2481572 19.5677313,29.5312039 L15.6222241,31.3710074 Z M12.8651226,44.9100737 L9.91787623,39.8624079 C9.7277313,39.5793612 9.44251391,39.3906634 9.10976029,39.3906634 L2.54976029,39.3906634 L9.10976029,27.8800983 L11.8193255,28.3518428 L13.9109197,32.172973 C14.3387458,33.0692875 15.3845429,33.446683 16.3352675,33.0692875 L16.3828038,33.0692875 L18.3317893,32.172973 L19.2825139,33.8240786 L12.8651226,44.9100737 Z M40.7688907,39.8624079 L33.7335284,27.5970516 C34.4465719,27.2668305 34.874398,26.5120393 34.8268617,25.6628993 L34.3039632,21.3228501 L37.2987458,18.2093366 C37.964253,17.5488943 38.0117893,16.4167076 37.346282,15.614742 L34.3514994,12.4068796 L34.9694704,8.01965602 C35.0645429,7.07616708 34.3990357,6.13267813 33.448311,5.94398034 L29.1225139,5.09484029 L27.0309197,1.27371007 C26.6030936,0.377395577 25.5572965,1.26565425e-14 24.6065719,0.377395577 L24.5590357,0.377395577 L20.5659922,2.21719902 L16.6680212,0.33022113 C16.2401951,0.0943488943 15.7172965,0.0471744472 15.2419342,0.188697789 C14.7665719,0.33022113 14.386282,0.66044226 14.1486009,1.08501229 L12.0094704,4.90614251 L7.68367333,5.66093366 C6.68541246,5.84963145 6.01990522,6.74594595 6.11497768,7.78378378 L6.63787623,12.1238329 L3.64309362,15.2373464 C2.97758638,15.8977887 2.93005014,17.0299754 3.59555739,17.831941 L6.59034,21.0398034 L5.97236899,25.427027 C5.87729652,26.2761671 6.40019507,27.0781327 7.20831101,27.4083538 L0.125412464,39.8624079 C-0.0647324638,40.1454545 -0.0171962319,40.5228501 0.125412464,40.8058968 C0.315557391,41.0889435 0.600774783,41.2776413 0.933528406,41.2776413 L8.53932551,41.2776413 L12.0094704,47.2687961 C12.1996154,47.5518428 12.4848328,47.7405405 12.8175864,47.7405405 C13.15034,47.7405405 13.4830936,47.5518428 13.6257023,47.2687961 L20.4233835,35.758231 L27.2210646,47.4103194 C27.4112096,47.6933661 27.696427,47.8820639 28.0291806,47.8820639 C28.3619342,47.8820639 28.6946878,47.6933661 28.8372965,47.4103194 L32.3074414,41.2776413 L39.9132386,41.2776413 C40.2459922,41.2776413 40.5787458,41.0889435 40.7213545,40.8058968 C40.9590357,40.5228501 40.9590357,40.1454545 40.7688907,39.8624079 Z" id="Fill-1" fill="#000000" mask="url(#mask-10)"></path>
            </g>
            <path d="M20.4233835,24.3036855 C16.2401951,24.3036855 12.8175864,20.9071253 12.8175864,16.755774 C12.8175864,12.6044226 16.2401951,9.20786241 20.4233835,9.20786241 C24.6065719,9.20786241 28.0291806,12.6044226 28.0291806,16.755774 C28.0291806,20.9071253 24.6065719,24.3036855 20.4233835,24.3036855 M29.9306299,16.755774 C29.9306299,11.5665848 25.652369,7.32088452 20.4233835,7.32088452 C15.194398,7.32088452 10.9161371,11.5665848 10.9161371,16.755774 C10.9161371,21.9449631 15.194398,26.1906634 20.4233835,26.1906634 C25.652369,26.1906634 29.9306299,21.9449631 29.9306299,16.755774" id="Fill-4" fill="#000000"></path>
        </g>
        <polygon id="Line-2-Copy-5" fill="#0A0A0A" points="239 24.4939033 221.5 24.4939033 221 24.4939033 221 23.4939033 221.5 23.4939033 239 23.4939033 239 19.4939033 248 23.9939033 239 28.4939033"></polygon>
        <g id="Group-3-Copy-6" transform="translate(277.506097, 24.000000) rotate(45.000000) translate(-277.506097, -24.000000) translate(263.006097, 9.500000)">
            <g id="Fill-1-Clipped">
                <mask id="mask-12" fill="white">
                    <use xlink:href="#path-11"></use>
                </mask>
                <g id="path-11"></g>
                <path d="M19.5372987,21.4876418 C17.8005563,23.2241661 15.4912482,24.1804312 13.0351045,24.1804312 C10.8549548,24.1804312 8.79071926,23.4262225 7.13968109,22.0419833 L9.83394684,19.3476615 L21.3148683,19.3476615 C20.7821447,20.112378 20.1916829,20.8330383 19.5372987,21.4876418 M3.84017698,14.9854444 C3.84017698,12.5295185 4.79660574,10.2204829 6.53340289,8.48373965 C7.18778712,7.8293551 7.90844711,7.23889304 8.6728896,6.70611445 L8.67332743,18.1864395 L5.97884277,20.8811444 C4.59438531,19.2301054 3.84017698,17.1658141 3.84017698,14.9854444 M13.9849659,4.01332505 L13.9849659,12.8747984 L10.3149524,16.5445949 L10.3147334,5.68187704 C11.4997616,5.0189549 12.7454285,4.46932004 13.9849659,4.01332505 M22.3388863,17.7058168 L11.4757907,17.7058168 L15.1455853,14.0360751 L24.0074922,14.0358562 C23.5514974,15.2751206 23.0018628,16.5210617 22.3388863,17.7058168 M19.3615667,2.51749512 C22.4117842,1.90525125 25.0603519,1.72092683 26.3552194,1.66559666 C26.2998346,2.96068372 26.115565,5.60919805 25.5033214,8.65925284 C25.2732991,9.80509622 24.9664932,11.0784015 24.5609577,12.3940116 L16.7874292,12.3942305 L21.5628962,7.61898008 C21.8833294,7.29827309 21.8833294,6.77835562 21.5628962,6.45792227 C21.2421893,6.13727001 20.722491,6.13727001 20.4018389,6.45792227 L15.6268097,11.2331727 L15.6268097,3.45985922 C16.9424192,3.05432359 18.2157238,2.74751756 19.3615667,2.51749512 M27.1194977,8.94953098 C28.0105264,4.49476863 28.0208153,0.968852525 28.0208153,0.820922323 C28.0208153,0.603268451 27.9344543,0.394425812 27.7802852,0.240530241 C27.6263897,0.086579941 27.4177113,0 27.1998934,0 C27.0519632,0 23.5260488,0.0102888931 19.0712339,0.901317982 C17.4841182,1.2185771 15.9804082,1.60933612 14.5728555,2.06768442 C14.5632233,2.07047555 14.554029,2.07370452 14.5446157,2.07687875 C13.6335019,2.37449045 12.7625584,2.70050607 11.9371488,3.05410468 C10.9276885,3.48678547 9.98401137,3.96160694 9.10923697,4.47616106 C9.08274855,4.49028092 9.05686215,4.50565953 9.03207031,4.52257053 C7.62856746,5.3556425 6.40342358,6.29182232 5.37256456,7.32268185 C3.32556839,9.36962429 2.19833313,12.0908723 2.19833313,14.9854444 C2.19833313,17.6047339 3.12143247,20.0820039 4.81351673,22.0462521 L0.240489077,26.6195009 C-0.0801630257,26.9401531 -0.0801630257,27.4598517 0.240489077,27.780285 C0.400842492,27.9406385 0.610779592,28.0208153 0.820935604,28.0208153 C1.03109162,28.0208153 1.2411929,27.9406385 1.4013274,27.780285 L5.97457397,23.2073099 C7.93854758,24.8991761 10.415871,25.8222758 13.0351045,25.8222758 C15.9299488,25.8222758 18.6511956,24.6952042 20.698137,22.6484807 C21.7292149,21.6174023 22.6651207,20.3919841 23.498247,18.9885353 C23.5151579,18.9637435 23.5305366,18.9378571 23.5446564,18.9113686 C24.0592103,18.0363202 24.5340315,17.0929162 24.9664932,16.0836743 C25.3207484,15.2571697 25.6469827,14.385405 25.9449774,13.4731961 C25.9475496,13.4654794 25.9501218,13.4575438 25.9524751,13.4498819 C26.4110421,12.0416717 26.8020199,10.5373042 27.1194977,8.94953098" id="Fill-1" fill="#000000" fill-rule="nonzero" mask="url(#mask-12)"></path>
            </g>
        </g>
        <g id="Group-3-Copy-13" transform="translate(328.518290, 24.506097) rotate(-315.000000) translate(-328.518290, -24.506097) translate(314.018290, 10.006097)">
            <mask id="mask-14" fill="white">
                <use xlink:href="#path-13"></use>
            </mask>
            <g id="Clip-2"></g>
            <path d="M19.5372987,21.4876418 C17.8005563,23.2241661 15.4912482,24.1804312 13.0351045,24.1804312 C10.8549548,24.1804312 8.79071926,23.4262225 7.13968109,22.0419833 L9.83394684,19.3476615 L21.3148683,19.3476615 C20.7821447,20.112378 20.1916829,20.8330383 19.5372987,21.4876418 M3.84017698,14.9854444 C3.84017698,12.5295185 4.79660574,10.2204829 6.53340289,8.48373965 C7.18778712,7.8293551 7.90844711,7.23889304 8.6728896,6.70611445 L8.67332743,18.1864395 L5.97884277,20.8811444 C4.59438531,19.2301054 3.84017698,17.1658141 3.84017698,14.9854444 M13.9849659,4.01332505 L13.9849659,12.8747984 L10.3149524,16.5445949 L10.3147334,5.68187704 C11.4997616,5.0189549 12.7454285,4.46932004 13.9849659,4.01332505 M22.3388863,17.7058168 L11.4757907,17.7058168 L15.1455853,14.0360751 L24.0074922,14.0358562 C23.5514974,15.2751206 23.0018628,16.5210617 22.3388863,17.7058168 M19.3615667,2.51749512 C22.4117842,1.90525125 25.0603519,1.72092683 26.3552194,1.66559666 C26.2998346,2.96068372 26.115565,5.60919805 25.5033214,8.65925284 C25.2732991,9.80509622 24.9664932,11.0784015 24.5609577,12.3940116 L16.7874292,12.3942305 L21.5628962,7.61898008 C21.8833294,7.29827309 21.8833294,6.77835562 21.5628962,6.45792227 C21.2421893,6.13727001 20.722491,6.13727001 20.4018389,6.45792227 L15.6268097,11.2331727 L15.6268097,3.45985922 C16.9424192,3.05432359 18.2157238,2.74751756 19.3615667,2.51749512 M27.1194977,8.94953098 C28.0105264,4.49476863 28.0208153,0.968852525 28.0208153,0.820922323 C28.0208153,0.603268451 27.9344543,0.394425812 27.7802852,0.240530241 C27.6263897,0.086579941 27.4177113,0 27.1998934,0 C27.0519632,0 23.5260488,0.0102888931 19.0712339,0.901317982 C17.4841182,1.2185771 15.9804082,1.60933612 14.5728555,2.06768442 C14.5632233,2.07047555 14.554029,2.07370452 14.5446157,2.07687875 C13.6335019,2.37449045 12.7625584,2.70050607 11.9371488,3.05410468 C10.9276885,3.48678547 9.98401137,3.96160694 9.10923697,4.47616106 C9.08274855,4.49028092 9.05686215,4.50565953 9.03207031,4.52257053 C7.62856746,5.3556425 6.40342358,6.29182232 5.37256456,7.32268185 C3.32556839,9.36962429 2.19833313,12.0908723 2.19833313,14.9854444 C2.19833313,17.6047339 3.12143247,20.0820039 4.81351673,22.0462521 L0.240489077,26.6195009 C-0.0801630257,26.9401531 -0.0801630257,27.4598517 0.240489077,27.780285 C0.400842492,27.9406385 0.610779592,28.0208153 0.820935604,28.0208153 C1.03109162,28.0208153 1.2411929,27.9406385 1.4013274,27.780285 L5.97457397,23.2073099 C7.93854758,24.8991761 10.415871,25.8222758 13.0351045,25.8222758 C15.9299488,25.8222758 18.6511956,24.6952042 20.698137,22.6484807 C21.7292149,21.6174023 22.6651207,20.3919841 23.498247,18.9885353 C23.5151579,18.9637435 23.5305366,18.9378571 23.5446564,18.9113686 C24.0592103,18.0363202 24.5340315,17.0929162 24.9664932,16.0836743 C25.3207484,15.2571697 25.6469827,14.385405 25.9449774,13.4731961 C25.9475496,13.4654794 25.9501218,13.4575438 25.9524751,13.4498819 C26.4110421,12.0416717 26.8020199,10.5373042 27.1194977,8.94953098" id="Fill-1" fill="#FFFFFF" mask="url(#mask-14)"></path>
        </g>
        <g id="Group-7" transform="translate(0.000000, 53.000000)" fill="#FFFFFF">
            <path d="M22.65625,17.1875 C22.65625,20.203125 20.203125,22.65625 17.1875,22.65625 L7.8125,22.65625 C4.796875,22.65625 2.34375,20.203125 2.34375,17.1875 L2.34375,7.8125 C2.34375,4.796875 4.796875,2.34375 7.8125,2.34375 L17.1875,2.34375 C20.203125,2.34375 22.65625,4.796875 22.65625,7.8125 L22.65625,17.1875 Z M17.1875,0 L7.8125,0 C3.4984375,0 0,3.4984375 0,7.8125 L0,17.1875 C0,21.5015625 3.4984375,25 7.8125,25 L17.1875,25 C21.5015625,25 25,21.5015625 25,17.1875 L25,7.8125 C25,3.4984375 21.5015625,0 17.1875,0 Z" id="Fill-1"></path>
            <path d="M12.5,16.40625 C10.346875,16.40625 8.59375,14.653125 8.59375,12.5 C8.59375,10.3453125 10.346875,8.59375 12.5,8.59375 C14.653125,8.59375 16.40625,10.3453125 16.40625,12.5 C16.40625,14.653125 14.653125,16.40625 12.5,16.40625 M12.5,6.25 C9.0484375,6.25 6.25,9.0484375 6.25,12.5 C6.25,15.9515625 9.0484375,18.75 12.5,18.75 C15.9515625,18.75 18.75,15.9515625 18.75,12.5 C18.75,9.0484375 15.9515625,6.25 12.5,6.25" id="Fill-3"></path>
            <path d="M19.6428571,5.35714286 C20.1359806,5.35714286 20.5357143,5.75687651 20.5357143,6.25 C20.5357143,6.74312349 20.1359806,7.14285714 19.6428571,7.14285714 C19.1497337,7.14285714 18.75,6.74312349 18.75,6.25 C18.75,5.75687651 19.1497337,5.35714286 19.6428571,5.35714286" id="Fill-5"></path>
        </g>
        <g id="facebook" transform="translate(45.000000, 53.000000)">
            <polygon id="Clip-2" points="0 0 13 0 13 25 0 25"></polygon>
            <path d="M13,8.0953125 L8.57167832,8.0953125 L8.57167832,5.5 C8.57167832,4.5265625 9.29545455,4.2984375 9.8041958,4.2984375 L12.9265734,4.2984375 L12.9265734,0.0140625 L8.62412587,0 C3.84965035,0 2.76398601,3.1953125 2.76398601,5.2390625 L2.76398601,8.0953125 L0,8.0953125 L0,12.5078125 L2.76398601,12.5078125 L2.76398601,25 L8.57167832,25 L8.57167832,12.5078125 L12.4912587,12.5078125 L13,8.0953125 Z" id="Fill-1" fill="#FFFFFF"></path>
        </g>
        <g id="icon-linkedin" transform="translate(227.000000, 94.000000)" fill="#FFFFFF">
            <polygon id="Fill-1" points="0 23 5.57142857 23 5.57142857 7.07692308 0 7.07692308"></polygon>
            <path d="M0,2.28165476 C0.0510151515,2.1226627 0.0945454545,1.96129762 0.154030303,1.80504365 C0.589333333,0.661980159 1.78868182,-0.02875 3.24487879,0.0274722222 C4.46510606,0.07475 5.44916667,0.498424603 5.97448485,1.58125 C6.8165303,3.31701984 5.62151515,5.19918651 3.57165152,5.34211508 C3.07075758,5.37698016 2.54031818,5.34686111 2.05636364,5.23003571 C0.988787879,4.97210714 0.335045455,4.29470238 0.0671666667,3.30150397 C0.0455,3.22191667 0.0222575758,3.14287698 0,3.06347222 L0,2.28165476 Z" id="Fill-5"></path>
            <path d="M25.9115212,23 C25.7925515,22.990873 25.6735818,22.9737143 25.5546121,22.9735317 C23.9577788,22.9718889 22.3609455,22.9724365 20.7639152,22.9724365 L20.361703,22.9724365 L20.361703,22.629627 C20.361703,20.042127 20.3741121,17.454627 20.3520515,14.8674921 C20.3471273,14.2862857 20.2774,13.6943095 20.1391273,13.1278889 C19.8948848,12.1272063 19.2740364,11.4096429 18.1140818,11.2391508 C16.9302939,11.0651905 15.9328394,11.3846349 15.1780515,12.2750635 C14.6919303,12.8482381 14.5069758,13.5024603 14.5095364,14.2271429 C14.5205667,17.0192698 14.5148545,19.8115794 14.5150515,22.6037063 C14.5152485,22.7139603 14.5150515,22.8242143 14.5150515,22.9534524 L8.95538485,22.9534524 L8.95538485,7.50347619 L14.5042182,7.50347619 L14.5042182,9.56307143 C14.524703,9.56726984 14.5453848,9.57146825 14.5658697,9.57548413 C14.7390061,9.36538095 14.9044606,9.14943651 15.0864606,8.9460873 C16.0378242,7.88297619 17.2649455,7.29684127 18.7430061,7.16760317 C20.3924303,7.02357937 21.9516424,7.26361905 23.3144758,8.1976746 C24.5589303,9.0505 25.2530515,10.2381032 25.5940061,11.6097063 C25.7261727,12.1419921 25.7734455,12.6921667 25.8601121,13.234127 C25.8746879,13.3252143 25.8941879,13.415754 25.9115212,13.5064762 L25.9115212,23 Z" id="Fill-2"></path>
        </g>
        <g id="icon-linkedin" transform="translate(78.000000, 54.000000)" fill="#FFFFFF">
            <polygon id="Fill-1" points="0 23 5.57142857 23 5.57142857 7.07692308 0 7.07692308"></polygon>
            <path d="M0,2.28165476 C0.0510151515,2.1226627 0.0945454545,1.96129762 0.154030303,1.80504365 C0.589333333,0.661980159 1.78868182,-0.02875 3.24487879,0.0274722222 C4.46510606,0.07475 5.44916667,0.498424603 5.97448485,1.58125 C6.8165303,3.31701984 5.62151515,5.19918651 3.57165152,5.34211508 C3.07075758,5.37698016 2.54031818,5.34686111 2.05636364,5.23003571 C0.988787879,4.97210714 0.335045455,4.29470238 0.0671666667,3.30150397 C0.0455,3.22191667 0.0222575758,3.14287698 0,3.06347222 L0,2.28165476 Z" id="Fill-5"></path>
            <path d="M25.9115212,23 C25.7925515,22.990873 25.6735818,22.9737143 25.5546121,22.9735317 C23.9577788,22.9718889 22.3609455,22.9724365 20.7639152,22.9724365 L20.361703,22.9724365 L20.361703,22.629627 C20.361703,20.042127 20.3741121,17.454627 20.3520515,14.8674921 C20.3471273,14.2862857 20.2774,13.6943095 20.1391273,13.1278889 C19.8948848,12.1272063 19.2740364,11.4096429 18.1140818,11.2391508 C16.9302939,11.0651905 15.9328394,11.3846349 15.1780515,12.2750635 C14.6919303,12.8482381 14.5069758,13.5024603 14.5095364,14.2271429 C14.5205667,17.0192698 14.5148545,19.8115794 14.5150515,22.6037063 C14.5152485,22.7139603 14.5150515,22.8242143 14.5150515,22.9534524 L8.95538485,22.9534524 L8.95538485,7.50347619 L14.5042182,7.50347619 L14.5042182,9.56307143 C14.524703,9.56726984 14.5453848,9.57146825 14.5658697,9.57548413 C14.7390061,9.36538095 14.9044606,9.14943651 15.0864606,8.9460873 C16.0378242,7.88297619 17.2649455,7.29684127 18.7430061,7.16760317 C20.3924303,7.02357937 21.9516424,7.26361905 23.3144758,8.1976746 C24.5589303,9.0505 25.2530515,10.2381032 25.5940061,11.6097063 C25.7261727,12.1419921 25.7734455,12.6921667 25.8601121,13.234127 C25.8746879,13.3252143 25.8941879,13.415754 25.9115212,13.5064762 L25.9115212,23 Z" id="Fill-2"></path>
        </g>
    </g>
</svg>