<?xml version="1.0" encoding="UTF-8"?>
<svg width="16px" height="13px" viewBox="0 0 16 13" version="1.1" xmlns="http://www.w3.org/2000/svg" xmlns:xlink="http://www.w3.org/1999/xlink">
    <!-- Generator: Sketch 52.3 (67297) - http://www.bohemiancoding.com/sketch -->
    <title>correct-symbol</title>
    <desc>Created with Sketch.</desc>
    <g id="Page-2" stroke="none" stroke-width="1" fill="none" fill-rule="evenodd">
        <g id="Artboard" transform="translate(-128.000000, -53.000000)" fill="#C1CC29">
            <g id="fermes-valens_icons">
                <g id="correct-symbol">
                    <g transform="translate(128.000000, 53.000000)">
                        <path d="M15.6944108,1.7155395 L14.2920451,0.313173815 C14.0997562,0.120740406 13.8658962,0.0244875847 13.5910068,0.0244875847 C13.3158646,0.0244875847 13.0820045,0.120740406 12.8897156,0.313173815 L6.12514673,7.08796388 L3.09348984,4.04597743 C2.9009842,3.85347178 2.66726862,3.75732731 2.39237923,3.75732731 C2.11730926,3.75732731 1.88359368,3.85347178 1.69108804,4.04597743 L0.288722348,5.44837923 C0.0962167043,5.64084876 0,5.87463657 0,6.14967043 C0,6.42448758 0.0962167043,6.6584921 0.288722348,6.85092551 L4.02148984,10.5836208 L5.42396388,11.9859865 C5.61636117,12.1785643 5.85014898,12.2747088 6.12514673,12.2747088 C6.40003612,12.2747088 6.63382393,12.1783115 6.82632957,11.9859865 L8.22876749,10.5836208 L15.6944108,3.11801354 C15.8867359,2.9255079 15.9831332,2.69175621 15.9831332,2.41672235 C15.9832777,2.14183296 15.8867359,1.90804515 15.6944108,1.7155395 Z" id="Path"></path>
                    </g>
                </g>
            </g>
        </g>
    </g>
</svg>