<?xml version="1.0" encoding="UTF-8"?>
<svg width="36px" height="52px" viewBox="0 0 36 52" version="1.1" xmlns="http://www.w3.org/2000/svg" xmlns:xlink="http://www.w3.org/1999/xlink">
    <!-- Generator: Sketch 53 (72520) - https://sketchapp.com -->
    <title>point-collecte_Plan de travail 1</title>
    <desc>Created with Sketch.</desc>
    <g id="Page-1" stroke="none" stroke-width="1" fill="none" fill-rule="evenodd">
        <g id="items-visuel-web" transform="translate(-1071.000000, -922.000000)">
            <g id="point-collecte_Plan-de-travail-1" transform="translate(1071.000000, 922.000000)">
                <path d="M18.075,0.42 C8.27,0.42 0.32,8.37 0.32,18.175 C0.32,27.331 9.918,35.384 16.684,50.241 C17.496,52.025 18.655,52.025 19.467,50.241 C26.231,35.384 35.83,27.331 35.83,18.175 C35.829,8.37 27.88,0.42 18.075,0.42" id="Fill-1" fill="#467D47"></path>
                <path d="M33.07,18.175 C33.07,26.456 26.356,33.17 18.075,33.17 C9.794,33.17 3.08,26.456 3.08,18.175 C3.08,9.894 9.794,3.18 18.075,3.18 C26.356,3.18 33.07,9.894 33.07,18.175" id="Fill-2" fill="#FFFFFE"></path>
                <path d="M9.172,22.812 L9.785,23.67 L9.661,23.76 L9.56,23.618 C9.49,23.52 9.436,23.497 9.384,23.535 C9.348,23.56 9.313,23.615 9.283,23.662 L8.38,25.052 L9.767,24.683 C9.925,24.642 9.979,24.619 10.034,24.581 C10.165,24.486 10.049,24.302 9.974,24.198 L10.098,24.109 L10.627,24.849 L10.502,24.937 C10.362,24.741 10.271,24.735 10.017,24.8 L7.922,25.334 L7.843,25.224 L9.059,23.33 C9.193,23.121 9.191,23.102 9.048,22.9 L9.172,22.812" id="Fill-3" fill="#447F45"></path>
                <path d="M12.021,27.802 L12.228,26.754 L11.361,27.37 L12.021,27.802 Z M10.278,27.645 C10.433,27.743 10.573,27.723 10.718,27.618 L12.545,26.325 L12.659,26.399 L12.202,28.732 C12.176,28.863 12.216,28.915 12.372,29.017 L12.289,29.144 L11.419,28.575 L11.503,28.449 L11.574,28.495 C11.745,28.607 11.814,28.615 11.844,28.566 C11.861,28.541 11.875,28.494 11.896,28.402 L11.981,27.978 L11.215,27.477 L10.991,27.651 C10.912,27.713 10.864,27.754 10.843,27.785 C10.755,27.919 10.858,28.021 11.027,28.137 L10.943,28.265 L10.194,27.773 L10.278,27.645 L10.278,27.645 Z" id="Fill-4" fill="#447F45"></path>
                <path d="M15.194,27.683 L16.294,27.895 L16.265,28.045 L16.083,28.009 C15.952,27.984 15.89,28.01 15.863,28.143 L15.516,29.944 C15.493,30.062 15.537,30.084 15.736,30.122 C16.36,30.244 16.533,30.244 16.812,29.564 L16.946,29.59 L16.711,30.467 L14.73,30.083 L14.759,29.934 L14.941,29.968 C15.071,29.993 15.134,29.969 15.161,29.835 L15.501,28.073 C15.526,27.939 15.478,27.893 15.347,27.866 L15.165,27.832 L15.194,27.683" id="Fill-5" fill="#447F45"></path>
                <path d="M18.997,28.079 L21.004,27.677 L21.222,28.523 L21.089,28.55 C20.83,27.898 20.658,27.901 20.004,28.033 C19.804,28.072 19.761,28.096 19.784,28.211 L19.943,29.006 L20.064,28.981 C20.352,28.924 20.46,28.77 20.414,28.437 L20.562,28.408 L20.782,29.497 L20.632,29.528 C20.573,29.231 20.416,29.066 20.157,29.118 L19.973,29.156 L20.154,30.053 C20.177,30.168 20.227,30.173 20.426,30.133 C21.2,29.977 21.232,29.898 21.274,29.195 L21.406,29.168 L21.522,30.068 L19.478,30.478 L19.449,30.329 L19.632,30.292 C19.762,30.266 19.811,30.218 19.785,30.084 L19.43,28.325 C19.403,28.191 19.34,28.166 19.209,28.193 L19.028,28.229 L18.997,28.079" id="Fill-6" fill="#447F45"></path>
                <path d="M24.203,26.005 L24.984,25.455 L25.073,25.579 C24.946,25.686 24.864,25.779 24.882,25.88 C24.898,25.98 24.948,26.086 25.051,26.233 L26.104,27.727 L25.992,27.803 L23.565,26.969 L23.56,26.972 L24.408,28.176 C24.566,28.4 24.661,28.476 24.965,28.278 L25.054,28.401 L24.269,28.955 L24.18,28.83 C24.421,28.647 24.43,28.5 24.272,28.276 L23.332,26.943 C23.215,26.905 23.137,26.942 22.988,27.049 L22.946,27.077 L22.858,26.953 L23.429,26.551 L25.573,27.277 L25.577,27.274 L24.889,26.294 C24.708,26.04 24.59,25.931 24.291,26.13 L24.203,26.005" id="Fill-7" fill="#447F45"></path>
                <path d="M26.976,22.731 L27.038,22.63 L27.807,23.06 L27.735,23.175 C27.363,23.059 26.918,23.071 26.689,23.441 C26.513,23.723 26.606,23.957 26.777,24.062 C26.921,24.152 27.096,24.156 27.339,23.931 L27.74,23.557 C28.034,23.284 28.348,23.263 28.651,23.45 C28.993,23.663 29.11,24.086 28.829,24.539 C28.683,24.775 28.472,24.931 28.234,25.005 L28.362,25.263 L28.303,25.358 L27.479,24.864 L27.536,24.747 C28.052,24.952 28.476,24.82 28.701,24.458 C28.879,24.17 28.841,23.888 28.574,23.722 C28.406,23.619 28.246,23.626 28.071,23.793 L27.66,24.186 C27.365,24.469 27.085,24.572 26.762,24.372 C26.374,24.131 26.323,23.74 26.553,23.368 C26.681,23.161 26.846,23.031 27.084,22.963 L26.976,22.731" id="Fill-8" fill="#447F45"></path>
                <path d="M18.059,9.658 C13.412,9.658 9.623,13.433 9.61,18.085 C9.596,22.743 13.375,26.544 18.035,26.558 C18.043,26.558 18.052,26.558 18.06,26.558 C22.708,26.558 26.497,22.785 26.511,18.134 C26.518,15.876 25.645,13.751 24.053,12.151 C22.461,10.55 20.342,9.665 18.084,9.658 C18.076,9.658 18.067,9.658 18.059,9.658 Z M18.06,26.989 C18.051,26.989 18.042,26.989 18.033,26.989 C13.137,26.975 9.165,22.979 9.179,18.083 C9.193,13.195 13.175,9.227 18.059,9.227 C18.068,9.227 18.077,9.227 18.085,9.227 C20.458,9.234 22.686,10.165 24.358,11.847 C26.031,13.529 26.949,15.763 26.942,18.135 C26.928,23.022 22.945,26.989 18.06,26.989 L18.06,26.989 Z" id="Fill-9" fill="#447F45"></path>
                <path d="M18.041,4.257 C10.384,4.257 4.145,10.475 4.123,18.136 C4.1,25.809 10.326,32.07 18,32.093 C18.014,32.093 18.029,32.093 18.042,32.093 C25.698,32.093 31.937,25.878 31.96,18.218 C31.981,10.543 25.756,4.28 18.082,4.257 C18.068,4.257 18.054,4.257 18.041,4.257 Z M18.042,32.668 C18.028,32.668 18.013,32.668 17.999,32.668 C10.007,32.644 3.524,26.124 3.548,18.135 C3.571,10.157 10.068,3.683 18.041,3.683 C18.055,3.683 18.069,3.683 18.083,3.683 C26.074,3.706 32.557,10.228 32.535,18.22 C32.511,26.196 26.014,32.668 18.042,32.668 L18.042,32.668 Z" id="Fill-10" fill="#447F45"></path>
                <path d="M12.827,13.709 L17.059,13.722 L17.057,14.334 L16.363,14.332 C15.887,14.331 15.682,14.454 15.682,14.712 C15.681,14.889 15.775,15.133 15.857,15.337 L18.272,21.531 L20.316,16.153 C20.548,15.542 20.601,15.311 20.602,15.038 C20.604,14.4 19.735,14.342 19.217,14.34 L19.219,13.728 L22.865,13.739 L22.864,14.351 C21.896,14.348 21.665,14.633 21.281,15.613 L18.117,23.68 L17.573,23.678 L14.251,15.292 C13.887,14.367 13.82,14.325 12.826,14.321 L12.827,13.709" id="Fill-11" fill="#6BB648"></path>
                <path d="M5.601,16.915 L5.791,15.81 L5.941,15.836 L5.909,16.019 C5.888,16.149 5.915,16.212 6.047,16.234 L7.856,16.546 C7.974,16.566 7.994,16.521 8.029,16.322 C8.137,15.693 8.137,15.521 7.449,15.256 L7.472,15.122 L8.353,15.339 L8.011,17.327 L7.86,17.302 L7.892,17.119 C7.914,16.989 7.887,16.926 7.755,16.902 L5.985,16.599 C5.852,16.576 5.805,16.626 5.782,16.757 L5.75,16.94 L5.601,16.915" id="Fill-12" fill="#447F45"></path>
                <path d="M6.539,13.092 L7.501,11.284 L8.295,11.654 L8.231,11.774 C7.563,11.559 7.455,11.694 7.142,12.284 C7.046,12.463 7.036,12.511 7.141,12.567 L7.856,12.948 L7.913,12.84 C8.052,12.581 8.002,12.399 7.716,12.224 L7.787,12.09 L8.768,12.612 L8.697,12.747 C8.431,12.605 8.202,12.622 8.078,12.855 L7.991,13.02 L8.798,13.45 C8.902,13.506 8.937,13.471 9.033,13.29 C9.404,12.594 9.364,12.519 8.846,12.04 L8.911,11.92 L9.679,12.402 L8.7,14.242 L8.565,14.171 L8.652,14.006 C8.714,13.889 8.708,13.82 8.587,13.757 L7.003,12.913 C6.884,12.849 6.823,12.883 6.76,12.999 L6.673,13.164 L6.539,13.092" id="Fill-13" fill="#447F45"></path>
                <path d="M9.884,8.483 L9.968,8.401 L10.608,9.004 L10.511,9.099 C10.179,8.896 9.744,8.797 9.432,9.099 C9.192,9.33 9.227,9.58 9.366,9.724 C9.483,9.845 9.65,9.892 9.941,9.734 L10.422,9.471 C10.773,9.279 11.081,9.334 11.329,9.589 C11.609,9.88 11.618,10.319 11.236,10.689 C11.035,10.882 10.793,10.981 10.544,10.993 L10.604,11.274 L10.524,11.353 L9.847,10.672 L9.931,10.573 C10.381,10.896 10.825,10.873 11.129,10.58 C11.373,10.344 11.407,10.062 11.187,9.834 C11.051,9.694 10.895,9.662 10.684,9.78 L10.188,10.06 C9.834,10.261 9.539,10.292 9.275,10.019 C8.959,9.692 9.004,9.3 9.32,8.997 C9.494,8.828 9.685,8.741 9.931,8.733 L9.884,8.483" id="Fill-14" fill="#447F45"></path>
                <path d="M14.228,6.355 C14.192,6.224 14.126,6.204 13.998,6.241 L13.82,6.292 L13.777,6.145 L15.72,5.589 L16.007,6.419 L15.875,6.456 C15.565,5.825 15.393,5.842 14.778,6.018 C14.583,6.074 14.541,6.099 14.574,6.214 L14.797,6.995 L14.914,6.961 C15.198,6.88 15.294,6.718 15.221,6.389 L15.369,6.348 L15.675,7.419 L15.526,7.461 C15.443,7.17 15.274,7.018 15.018,7.09 L14.84,7.141 L15.086,8.008 C15.113,8.099 15.166,8.14 15.373,8.081 L15.535,8.034 L15.578,8.181 L14.452,8.503 L14.409,8.356 L14.588,8.305 C14.716,8.269 14.761,8.217 14.723,8.085 L14.228,6.355" id="Fill-15" fill="#447F45"></path>
                <path d="M17.639,5.348 L19.686,5.432 L19.696,6.307 L19.562,6.302 C19.465,5.606 19.297,5.568 18.629,5.541 C18.425,5.533 18.377,5.544 18.374,5.664 L18.34,6.473 L18.462,6.478 C18.757,6.49 18.897,6.367 18.931,6.032 L19.084,6.039 L19.038,7.15 L18.885,7.144 C18.897,6.842 18.785,6.643 18.52,6.633 L18.333,6.624 L18.297,7.54 C18.29,7.659 18.338,7.674 18.541,7.683 C19.33,7.715 19.38,7.646 19.588,6.972 L19.724,6.978 L19.622,7.88 L17.54,7.794 L17.546,7.643 L17.731,7.65 C17.864,7.654 17.923,7.619 17.929,7.484 L18.002,5.688 C18.008,5.553 17.952,5.513 17.819,5.508 L17.632,5.5 L17.639,5.348" id="Fill-16" fill="#447F45"></path>
                <path d="M22.055,7.113 C22.143,7.15 22.221,7.183 22.296,7.212 C22.768,7.395 22.966,7.315 23.089,6.993 C23.145,6.851 23.168,6.74 23.112,6.627 C23.054,6.514 22.913,6.44 22.596,6.318 C22.432,6.254 22.381,6.269 22.324,6.417 L22.055,7.113 Z M21.753,5.828 L22.903,6.273 C23.254,6.409 23.634,6.716 23.47,7.14 C23.333,7.494 22.953,7.565 22.516,7.417 L22.513,7.424 C22.769,7.552 22.871,7.759 22.834,8.039 L22.796,8.354 C22.768,8.598 22.795,8.648 22.853,8.671 C22.935,8.702 23.003,8.606 23.1,8.396 L23.227,8.445 C23.081,8.824 22.878,8.942 22.619,8.842 C22.431,8.77 22.315,8.602 22.452,8.138 C22.582,7.697 22.562,7.478 22.176,7.33 L21.999,7.26 L21.684,8.077 C21.634,8.203 21.674,8.259 21.797,8.307 L21.972,8.373 L21.917,8.516 L20.87,8.11 L20.924,7.969 L21.098,8.036 C21.223,8.083 21.29,8.069 21.338,7.943 L21.986,6.268 C22.035,6.141 21.995,6.086 21.872,6.038 L21.697,5.971 L21.753,5.828 L21.753,5.828 Z" id="Fill-17" fill="#447F45"></path>
                <path d="M27.163,9.049 L27.805,9.625 L27.702,9.739 L27.559,9.609 C27.46,9.521 27.394,9.51 27.301,9.611 L26.098,10.948 C26.008,11.049 26.025,11.115 26.124,11.203 L26.268,11.332 L26.165,11.447 L25.326,10.69 L25.428,10.577 L25.566,10.702 C25.665,10.79 25.733,10.801 25.824,10.7 L27.13,9.247 L27.126,9.243 L25.023,10.418 L24.948,10.351 L25.872,8.115 L25.868,8.111 L24.764,9.336 C24.555,9.568 24.476,9.707 24.737,9.955 L24.635,10.068 L23.931,9.435 L24.033,9.322 C24.275,9.504 24.375,9.515 24.693,9.162 L25.637,8.113 C25.727,8.012 25.709,7.945 25.61,7.857 L25.468,7.728 L25.57,7.614 L26.215,8.195 L25.467,9.996 L25.472,10 L27.163,9.049" id="Fill-18" fill="#447F45"></path>
                <path d="M28.946,11.21 L29.894,13.024 L29.14,13.471 L29.078,13.351 C29.632,12.92 29.581,12.755 29.271,12.164 C29.179,11.983 29.144,11.948 29.039,12.002 L28.321,12.378 L28.379,12.485 C28.514,12.747 28.69,12.807 28.998,12.669 L29.068,12.806 L28.082,13.319 L28.012,13.184 C28.279,13.044 28.395,12.847 28.271,12.613 L28.185,12.448 L27.375,12.871 C27.269,12.925 27.279,12.974 27.373,13.155 C27.738,13.853 27.823,13.864 28.511,13.707 L28.574,13.828 L27.742,14.189 L26.777,12.342 L26.913,12.271 L26.998,12.436 C27.06,12.553 27.119,12.586 27.24,12.524 L28.833,11.694 C28.952,11.631 28.958,11.563 28.898,11.446 L28.812,11.281 L28.946,11.21" id="Fill-19" fill="#447F45"></path>
                <path d="M30.846,16.6 L30.864,16.716 L30.005,16.898 L29.984,16.765 C30.339,16.606 30.667,16.306 30.597,15.878 C30.544,15.551 30.319,15.436 30.122,15.469 C29.954,15.497 29.821,15.606 29.786,15.935 L29.728,16.481 C29.687,16.878 29.465,17.1 29.115,17.158 C28.717,17.223 28.352,16.981 28.265,16.456 C28.22,16.182 28.278,15.926 28.409,15.715 L28.143,15.603 L28.125,15.494 L29.068,15.325 L29.103,15.45 C28.581,15.636 28.348,16.013 28.415,16.431 C28.471,16.766 28.683,16.954 28.994,16.902 C29.188,16.871 29.304,16.76 29.326,16.519 L29.377,15.954 C29.414,15.547 29.556,15.286 29.93,15.226 C30.378,15.151 30.675,15.412 30.746,15.844 C30.785,16.084 30.747,16.29 30.612,16.496 L30.846,16.6" id="Fill-20" fill="#447F45"></path>
            </g>
        </g>
    </g>
</svg>