<?xml version="1.0" encoding="UTF-8"?>
<svg width="171px" height="100px" viewBox="0 0 171 100" version="1.1" xmlns="http://www.w3.org/2000/svg" xmlns:xlink="http://www.w3.org/1999/xlink">
    <!-- Generator: Sketch 52.3 (67297) - http://www.bohemiancoding.com/sketch -->
    <title>feuilles</title>
    <desc>Created with Sketch.</desc>
    <defs>
        <filter x="-7.3%" y="-12.8%" width="114.6%" height="125.5%" filterUnits="objectBoundingBox" id="filter-1">
            <feOffset dx="0" dy="2" in="SourceAlpha" result="shadowOffsetOuter1"></feOffset>
            <feGaussianBlur stdDeviation="2" in="shadowOffsetOuter1" result="shadowBlurOuter1"></feGaussianBlur>
            <feColorMatrix values="0 0 0 0 0   0 0 0 0 0   0 0 0 0 0  0 0 0 0.5 0" type="matrix" in="shadowBlurOuter1" result="shadowMatrixOuter1"></feColorMatrix>
            <feMerge>
                <feMergeNode in="shadowMatrixOuter1"></feMergeNode>
                <feMergeNode in="SourceGraphic"></feMergeNode>
            </feMerge>
        </filter>
    </defs>
    <g id="Page-1" stroke="none" stroke-width="1" fill="none" fill-rule="evenodd">
        <g id="menu-user" transform="translate(-899.000000, -363.000000)" fill="#FFFFFF">
            <g id="top-banner" transform="translate(0.000000, 98.000000)">
                <g id="feuilles" filter="url(#filter-1)" transform="translate(903.000000, 267.000000)">
                    <path d="M60.3396006,67.6858095 C59.6409756,65.2650476 59.5431006,62.6414286 59.8941006,60.0685238 C60.3024756,57.5057619 61.1428506,55.010619 62.2498506,52.6473333 C64.5246006,47.9376667 67.8219756,43.796 71.5749756,40.1817619 C75.3786006,36.6148571 79.6108506,33.4604286 84.4033506,31.0700952 C86.7962256,29.8969048 89.3882256,28.882619 92.0983506,28.2605238 C94.7477256,27.6282857 97.4274756,27.2800476 100.066726,27.0907143 C102.709351,26.894619 105.314851,26.9081429 107.869726,26.965619 C110.424601,27.0298571 112.918726,27.111 115.446601,27.2428571 C120.444976,27.4998095 125.328601,27.75 130.073851,27.6519524 C134.798851,27.4998095 139.395601,26.965619 143.526601,25.6267619 C147.880351,24.2169048 152.423101,22.0125238 155.727226,18.6687619 C158.467726,15.889619 161.015851,12.8636667 163.678726,10 C162.909226,10.8317143 162.888976,14.5237143 162.669601,15.7712857 C161.515351,22.2593333 159.503851,28.5884762 156.996226,34.7688571 C155.379601,38.7042857 153.590851,42.5653333 151.370101,46.4162381 L150.495976,47.8599048 L149.645476,49.1750952 L147.914101,51.8088571 C146.736226,53.5669524 145.497601,55.3385714 144.150976,57.069619 C141.461101,60.5317143 138.126601,63.7639048 134.417476,66.2759524 C132.551101,67.5167619 130.620601,68.6020476 128.656351,69.565619 C126.654976,70.4717143 124.694101,71.2797619 122.692726,71.9999048 C118.693351,73.4401905 114.633226,74.6911429 110.478601,75.4958095 C102.209851,77.1964286 93.7419756,77.6900476 85.4934756,76.7805714 C93.7453506,75.9420952 101.784601,74.2955714 109.439101,71.6516667 C113.256226,70.3094286 117.005851,68.8353333 120.603601,67.0535714 C124.235101,65.2751905 127.623601,63.3548095 130.610476,61.0253333 C133.563601,58.6586667 136.044226,55.8896667 138.190726,52.6574762 C139.287601,51.0582857 140.343976,49.3914762 141.369976,47.6570476 L142.905601,45.0266667 L143.668351,43.6979524 L144.350101,42.4639048 C146.148976,39.0897143 147.664351,35.3537619 149.108851,31.6245714 C150.549976,27.8852381 151.673851,32.2060952 146.290726,33.9608095 C140.887351,35.6884762 135.436726,36.1922381 130.188601,36.2125238 C124.940476,36.2361905 119.844226,35.7391905 114.882976,35.2996667 C109.945351,34.853381 105.000976,34.3631429 100.323226,34.3360952 C97.9708506,34.3259524 95.6589756,34.4578095 93.4146006,34.8161905 C91.2141006,35.1475238 89.0608506,35.8000476 86.8941006,36.6621905 C82.5606006,38.3526667 78.3621006,40.7666667 74.5618506,43.6776667 C70.7582256,46.5819048 67.2111006,49.9425714 64.5414756,53.952381 C61.8347256,57.9013333 59.9886006,62.6245238 60.3396006,67.6858095 Z M52,93.1229095 C52.1960952,89.399481 53.4504286,85.7000524 55.1510476,82.3160524 C56.8685714,78.9149095 59.0763333,75.7880524 61.5478095,72.9251952 C66.4975238,67.1960524 72.4750476,62.4749095 78.9225238,58.6691952 C82.1952857,56.7629095 85.4173333,55.1651952 88.7306667,53.6429095 C92.0575238,52.1651952 95.4418571,50.8177667 98.9039524,49.6863381 C102.366048,48.5549095 105.885619,47.6017667 109.469429,46.8817667 C113.056619,46.1720524 116.687762,45.647481 120.427095,45.5926238 C117.374095,47.7800524 114.267,49.6520524 111.166667,51.479481 C108.059571,53.3000524 104.945714,55.0246238 101.831857,56.7080524 C98.714619,58.391481 95.5770952,60.0029095 92.4497143,61.6211952 C89.3223333,63.2223381 86.1104286,64.7686238 83.1284286,66.359481 C77.1069524,69.6029095 71.2984762,73.2680524 65.9295238,77.5571952 C60.6112857,81.9011952 55.5432381,86.6531952 52,93.1229095 Z" id="Fill-17"></path>
                    <path d="M52.7435662,92 C50.7904512,86.1753059 48.8206713,80.8171281 46.7775663,75.431906 C44.7444602,70.0703477 42.6746915,64.7696394 40.501601,59.5297811 C38.3151787,54.2966838 36.0820949,49.1075338 33.6290357,44.0198004 C33.0491005,42.7115261 32.3825083,41.4877656 31.7425798,40.2166774 C31.129315,38.9117836 30.4160614,37.7116871 29.7228055,36.4507405 C29.0828771,35.1357051 28.2496368,34.0201223 27.5197184,32.7219897 C27.1697575,32.0560206 26.7198078,31.4982292 26.2865229,30.8998712 C25.8699028,30.2744688 25.423286,29.6727302 25,29 C27.8630134,29.9972634 30.5993743,31.6368319 32.9557776,33.6178364 C34.1289798,34.6184804 35.3321787,35.636027 36.3487317,36.7820348 C37.4086133,37.9009981 38.4718278,39.0436252 39.3817261,40.2707663 C43.1913004,45.1117193 46.1876322,50.500322 48.5207048,56.1255634 C50.8437785,61.7541854 52.4869282,67.6600129 53.3768288,73.704443 C54.2067361,79.7252093 54.4000478,86.0265615 52.7435662,92" id="Fill-7"></path>
                    <path d="M54.967881,42.6458864 C53.6180165,37.084114 50.770541,32.2758503 47.1641864,28.3123272 C43.551116,24.3420462 39.2060296,21.1455477 34.548661,18.7431053 C29.8274929,16.330526 24.7772533,14.5734655 19.5490465,13.1982277 C14.3241976,11.8027162 8.93145507,10.7484799 3.44469212,9.6638329 L8.64603595,5.39282424 C8.7602036,12.6947623 8.80385594,20.0000794 8.73334062,27.3020174 C8.71319339,30.9580549 8.59902574,34.6343662 8.66618318,38.0572552 C8.71655126,39.7737682 8.8206453,41.4564916 9.012044,43.0919094 C9.26052654,44.7002956 9.52244056,46.3086818 9.98246903,47.8900363 C11.715131,54.2222121 15.2039601,60.2604182 20.0460116,65.1565349 C24.8880631,70.0560306 30.9960324,73.8877742 38.0341322,75.9996258 C30.6703188,76.0367943 23.1956956,73.3032136 16.990348,68.758509 C10.7648532,64.2070464 5.77841321,57.7160594 2.97794791,50.1775939 C2.26607903,48.2988907 1.78254545,46.3289556 1.33594847,44.3556414 C0.936361694,42.3857063 0.711384266,40.425908 0.556922151,38.4965204 C0.247997921,34.6276083 0.241282177,30.9918445 0.153977503,27.3493229 C0.00623113272,20.0440059 -0.0239897158,12.7386888 0.0163047489,5.43675075 L0.0431677254,0 L5.21764857,1.16574208 C10.7111273,2.40244238 16.3019843,3.74051155 21.8290417,5.61921473 C27.3359518,7.50467583 32.8126412,9.9172551 37.7655025,13.2691859 C42.7553004,16.6211168 47.0869553,20.9259151 50.2366393,25.984222 C53.3762497,31.0121183 55.2734474,36.9185449 54.967881,42.6458864" id="Fill-9"></path>
                </g>
            </g>
        </g>
    </g>
</svg>