<?xml version="1.0" encoding="UTF-8"?>
<svg xmlns="http://www.w3.org/2000/svg" xmlns:xlink="http://www.w3.org/1999/xlink" width="109px" height="94px" viewBox="0 0 109 94">
  <!-- Generator: Sketch 52.3 (67297) - http://www.bohemiancoding.com/sketch -->
  <title>Group 76</title>
  <desc>Created with Sketch.</desc>
  <defs>
    <polygon id="path-1" points="0.00033030303 0.875684211 108.805121 0.875684211 108.805121 94 0.00033030303 94"></polygon>
    <path d="M30.2432727,12.535 C29.7965455,17.315 31.0565455,22.0916667 33.5356364,29.0816667 C33.5356364,29.0816667 26.9132727,15.8916667 13.2463636,15.895 C6.99218182,15.895 2.42509091,17.9616667 0.623454545,21.285 C1.22236364,28.32 8.52872727,34.3766667 19.062,37.5216667 C17.9836364,37.185 9.702,34.3833333 10.6265455,28.3516667 C11.0258182,25.76 13.8125455,24.7283333 17.5598182,24.745 C22.2627273,24.7716667 29.6918182,27.7283333 29.6918182,31.2266667 C29.6918182,31.2266667 29.6705455,34.1533333 24.2329091,34.3766667 C24.2329091,34.3766667 24.2885455,36.54 30.0043636,36.3366667 C30.0043636,36.3366667 32.2183636,39.5166667 35.6007273,39.83 L35.6007273,0.876666667 C34.2114545,1.50666667 30.8814545,5.72333333 30.2432727,12.535" id="path-3"></path>
    <path d="M0.249043478,39.83 C3.66408696,39.5166667 5.89617391,36.3366667 5.89617391,36.3366667 C11.6672174,36.54 11.7217391,34.3766667 11.7217391,34.3766667 C6.23156522,34.1533333 6.21173913,31.2266667 6.21173913,31.2266667 C6.21173913,27.7283333 13.7126087,24.7716667 18.4593043,24.745 C22.2444348,24.7283333 25.0597391,25.76 25.457913,28.3516667 C26.4244348,34.5766667 17.4911304,37.3583333 16.86,37.5466667 C27.5413043,34.41 34.9513043,28.3416667 35.5626087,21.2933333 C33.7501739,17.9633333 29.134,15.895 22.8144348,15.895 C9.01547826,15.8916667 2.33078261,29.0816667 2.33078261,29.0816667 C4.83217391,22.0916667 6.106,17.315 5.65495652,12.535 C5.01226087,5.725 1.65008696,1.50833333 0.249043478,0.876666667 L0.249043478,39.83 Z" id="path-5"></path>
  </defs>
  <g id="Page-1" stroke="none" stroke-width="1" fill="none" fill-rule="evenodd">
    <g id="accueil" transform="translate(-1138.000000, -4116.000000)">
      <g id="footer" transform="translate(-45.000000, 3285.000000)">
        <g id="Group-76" transform="translate(1183.000000, 831.000000)">
          <g id="Group-32">
            <g id="Group-3">
              <mask id="mask-2" fill="white">
                <use xlink:href="#path-1"></use>
              </mask>
              <g id="Clip-2"></g>
              <path d="M101.652739,59.300807 C101.652739,59.300807 98.9326939,62.0894737 98.9326939,64.9754386 L98.9343455,64.9754386 L98.9343455,88.7656842 C98.9343455,91.838 96.7576485,94 93.8262091,94 L14.7169818,94 C11.6055273,94 9.60884545,91.6780351 9.60884545,88.7656842 L9.60884545,64.9754386 C9.60884545,62.0894737 7.15634545,59.300807 7.15634545,59.300807 C2.58495152,53.6937895 0.00033030303,47.067614 0.00033030303,39.7718947 C0.00033030303,17.6901404 23.6913152,0.875684211 54.4028909,0.875684211 C85.1161182,0.875684211 108.807103,17.6884912 108.805452,39.7718947 C108.805452,47.067614 106.219179,53.6937895 101.651088,59.2991579 L101.652739,59.300807 Z" id="Fill-1" fill="#FEFEFE" mask="url(#mask-2)"></path>
            </g>
            <path d="M59.5002924,32.1925263 C59.9511561,36.9222105 58.6778379,41.6485965 56.1774439,48.5650175 C56.1774439,48.5650175 62.8594742,35.5122105 76.6529288,35.5171579 C82.9699742,35.5171579 87.5826561,37.5653684 89.3960197,40.8586667 C89.4224439,40.5486316 89.4373076,40.2369474 89.4373076,39.9219649 C89.4373076,29.2818246 73.6157924,20.6552632 54.0965348,20.6552632 L54.0965348,20.6569123 C55.4986712,21.2835789 58.8595045,25.4542105 59.5002924,32.1925263" id="Fill-4" fill="#004288"></path>
            <path d="M79.2966742,47.8431965 C78.8970076,45.2788105 76.0844773,44.2580035 72.2992045,44.2744947 C67.556053,44.3008807 60.0581742,47.2264246 60.0581742,50.6879333 C60.0581742,50.6879333 60.0763409,53.5821439 65.5659773,53.8047754 C65.5659773,53.8047754 65.5114773,55.9453368 59.7410833,55.7441439 C59.7410833,55.7441439 57.5098864,58.8890211 54.0962045,59.1990561 C60.0994621,59.1990561 65.7525985,58.3810912 70.7021894,56.941407 C71.3330682,56.753407 80.2611591,54.0026702 79.2966742,47.8431965" id="Fill-6" fill="#004288"></path>
            <path d="M48.4493439,55.7433193 C42.67895,55.9461614 42.62445,53.8056 42.62445,53.8056 C48.1124348,53.5829684 48.132253,50.6887579 48.132253,50.6887579 C48.132253,47.2272491 40.6360258,44.3000561 35.8895712,44.2753193 C32.10595,44.2588281 29.2934197,45.277986 28.8921015,47.8423719 C27.9573439,53.8105474 36.3173136,56.5827228 37.4056621,56.9158456 C42.3767227,58.3703719 48.0579348,59.1998807 54.0958742,59.1998807 C50.6838439,58.8914947 48.4493439,55.7433193 48.4493439,55.7433193" id="Fill-8" fill="#FAB900"></path>
            <path d="M54.0967,59.199386 L54.0967,20.6544386 C34.5774424,20.6544386 18.7559273,29.2826491 18.7559273,39.9227895 C18.7559273,40.2361228 18.7691394,40.5445088 18.7972152,40.8512456 C20.6155333,37.5612456 25.2249121,35.5179825 31.537003,35.5179825 C45.3288061,35.5130351 52.0124879,48.5658421 52.0124879,48.5658421 C49.5104424,41.6494211 48.2387758,36.921386 48.6896394,32.1933509 C49.3337303,25.4517368 52.6945636,21.2794561 54.0967,20.6560877" id="Fill-10" fill="#FAB900"></path>
            <path d="M24.9289606,23.0966246 L24.7968394,22.9564491 C24.702703,23.0405544 24.5623242,23.1048702 24.4516727,23.0553965 C22.8067636,22.3132912 18.0817788,20.5124491 17.9496576,20.3706246 C17.8736879,20.2881684 17.8869,20.2320982 17.9959,20.1100632 L17.8637788,19.9698877 L15.3865061,22.2440281 L15.5186273,22.3858526 C15.6457939,22.2902035 15.703597,22.2803088 15.7812182,22.364414 C15.9331576,22.5293263 16.9587485,25.8523088 18.047097,28.9361684 C18.0883848,29.051607 18.0157182,29.185186 17.9199303,29.2725895 L18.0504,29.414414 L19.8307333,27.7801333 L19.7002636,27.6383088 C19.6523697,27.6828351 19.5450212,27.7801333 19.4475818,27.6745895 C19.3253697,27.5443088 19.1750818,26.8318877 19.0495667,26.5548351 L21.7993394,24.0267298 C22.0784455,24.1619579 22.7654758,24.3845895 22.8843848,24.5148702 C22.9818242,24.620414 22.8777788,24.7210105 22.8298848,24.7622386 L22.958703,24.9057123 L24.9289606,23.0966246 Z M18.6432939,25.3526246 L17.7068848,22.3875018 L20.6119,23.5435368 L18.6432939,25.3526246 Z" id="Fill-12" fill="#004288"></path>
            <path d="M24.8346591,15.878414 C24.7438258,15.6722737 24.5472955,15.7069053 24.3193864,15.7910105 L24.2417652,15.6145544 L26.9931894,14.3925544 L27.0741136,14.5673614 C26.8709773,14.6745544 26.7173864,14.7965895 26.8082197,15.0010807 L28.8247197,19.5295719 L32.8593712,17.7369754 C32.9749773,17.6858526 33.0971894,17.5621684 32.9584621,17.2521333 L33.1351742,17.1746246 L34.1310379,19.4108351 L33.9526742,19.4866947 C33.81725,19.1766596 33.6454924,19.1849053 33.5265833,19.2393263 L27.1220076,22.0807649 L27.0443864,21.9059579 C27.2574318,21.7921684 27.4143258,21.6701333 27.3234924,21.4656421 L24.8346591,15.878414 Z" id="Fill-14" fill="#004288"></path>
            <path d="M38.1161439,10.9440737 L38.1623864,11.1320737 C37.8552045,11.2260737 37.6801439,11.3167754 37.7329924,11.5361088 L39.2077955,17.4713018 C39.2606439,17.688986 39.4604773,17.688986 39.7775682,17.6263193 L39.8254621,17.8143193 L36.7288712,18.5811614 L36.6809773,18.3931614 C36.9914621,18.3024596 37.1665227,18.2084596 37.1136742,17.9891263 L35.6372197,12.0555825 C35.5827197,11.8378982 35.3845379,11.8378982 35.067447,11.8989158 L35.0212045,11.7109158 L38.1161439,10.9440737 Z" id="Fill-16" fill="#004288"></path>
            <path d="M45.2455697,16.3858491 C45.2620848,16.6117789 45.4602667,16.6414632 45.717903,16.6348667 L45.7344182,16.827814 L43.2158576,17.0454982 L43.1976909,16.8542 C43.3727515,16.8245158 43.5610242,16.7585509 43.5412061,16.5342702 L43.0127212,10.4440596 C42.9912515,10.2181298 42.7963727,10.1884456 42.6180091,10.1884456 L42.5998424,9.99549825 L46.0828879,9.69205965 L46.1010545,9.88500702 C45.9392061,9.91469123 45.7988273,9.94272632 45.8054333,10.0383754 C45.820297,10.1983404 47.2108727,12.4197088 47.3677667,12.7280947 C47.7905545,11.6429719 48.5535545,10.0103404 48.5337364,9.80090175 C48.5271303,9.70690175 48.3801455,9.70195439 48.218297,9.70030526 L48.2017818,9.50735789 L51.7013424,9.2039193 L51.7178576,9.39686667 C51.5741758,9.42325263 51.385903,9.48921754 51.4057212,9.71349825 L51.9375091,15.8020596 C51.9573273,16.0296386 52.1538576,16.0593228 52.2991909,16.0626211 L52.3157061,16.2555684 L49.635297,16.4864456 L49.6187818,16.2951474 C49.8433879,16.2605158 50.0316606,16.1945509 50.0118424,15.9719193 L49.6138273,11.4186912 L49.5824485,11.4219895 L47.5940242,16.2605158 L44.8772818,11.8326211 L44.8475545,11.8359193 L45.2455697,16.3858491 Z" id="Fill-18" fill="#004288"></path>
            <path d="M62.9792091,15.3889544 C63.1724364,15.4021474 63.3392394,15.3015509 63.4251182,15.0179018 L63.6166939,15.0310947 L63.463103,17.1815509 L63.3012545,17.1716561 C63.2104212,16.8731649 63.1328,16.820393 62.8768152,16.8022526 L55.7092394,16.2844281 L55.7224515,16.0931298 C55.9503606,16.0931298 56.1782697,16.0584982 56.1947848,15.8358667 L56.6340879,9.73905965 C56.6489515,9.51312982 56.4293,9.44881404 56.2063455,9.4174807 L56.2179061,9.22453333 L63.5143,9.75060351 C63.6447697,9.76049825 63.8082697,9.70607719 63.8297394,9.41912982 L64.0229667,9.43232281 L63.8677242,11.5827789 L63.674497,11.569586 C63.6959667,11.248007 63.5407242,11.1721474 63.4135576,11.1622526 L58.721603,10.8241825 L58.6258152,12.1236912 L61.6480879,12.3397263 C61.7769061,12.3512702 61.9404061,12.2984982 61.9618758,11.9934105 L62.1584061,12.0066035 L62.0048152,14.0927439 L61.8115879,14.0795509 C61.8347091,13.7744632 61.6794667,13.6986035 61.5506485,13.6887088 L58.5283758,13.4726737 L58.4144212,15.0607789 L62.9792091,15.3889544 Z" id="Fill-20" fill="#004288"></path>
            <path d="M74.8106636,19.0430807 C74.7528606,19.262414 74.9262697,19.356414 75.1723455,19.4388702 L75.1244515,19.6268702 L72.2409061,18.8699228 L72.2888,18.6835719 C72.4456939,18.7231509 72.7462697,18.7874667 72.7941636,18.5978175 C72.8883,18.241607 71.3606485,15.9443789 70.1385273,13.4294667 L70.0988909,13.4542035 L69.0270576,17.5308351 C68.9692545,17.7485193 69.1476182,17.8441684 69.3590121,17.9167298 L69.3111182,18.1030807 L66.6439212,17.4055018 L66.6951182,17.2175018 C66.8999061,17.2570807 67.0997394,17.2570807 67.1575424,17.0410456 L68.7099667,11.1272912 C68.7677697,10.9079579 68.5943606,10.8139579 68.3631485,10.7364491 L68.4110424,10.5500982 L72.121997,11.5214316 L72.0708,11.7077825 C71.9271182,11.687993 71.7272848,11.6846947 71.6711333,11.9023789 C71.6430576,12.0095719 72.7495727,13.9472912 73.6876333,15.7052561 L74.4935727,12.6395368 C74.5480727,12.4235018 74.3730121,12.3278526 74.1285879,12.2453965 L74.1797848,12.0606947 L76.9213,12.7780632 L76.8717545,12.9627649 C76.6190727,12.9149404 76.4192394,12.9132912 76.3614364,13.1309754 L74.8106636,19.0430807 Z" id="Fill-22" fill="#004288"></path>
            <path d="M86.9334455,17.5542526 C87.044097,17.6169193 87.2175061,17.6367088 87.3562333,17.3827439 L87.5279909,17.4767439 L86.3950515,19.5348491 L86.2249455,19.4424982 C86.3653242,19.1885333 86.2563242,19.0549544 86.1423697,18.9922877 L84.1225667,17.8857263 L81.7361273,22.2295158 C81.6271273,22.4290596 81.7724606,22.5626386 81.921097,22.661586 L81.8269606,22.8314456 L79.2852788,21.4379368 L79.3777636,21.2680772 C79.5412636,21.3406386 79.7344909,21.3917614 79.8401879,21.1922175 L82.2299303,16.8500772 L80.2117788,15.7418667 C80.0961727,15.6824982 79.9244152,15.6577614 79.7856879,15.9117263 L79.6172333,15.8193754 L80.7468697,13.7612702 L80.9169758,13.8536211 C80.7782485,14.1092351 80.8872485,14.2411649 81.001203,14.3038316 L86.9334455,17.5542526 Z" id="Fill-24" fill="#004288"></path>
            <path d="M87.5743985,23.8415333 L87.6586258,24.0559193 C87.6288985,24.0889018 87.5826561,24.1152877 87.5281561,24.173007 C87.2440955,24.4797439 88.3192318,26.0414632 89.2754591,26.9286912 C89.5727318,27.2007965 90.3951864,27.8752877 90.8245803,27.4168316 C91.6767621,26.4933228 86.979853,23.8200947 88.8146864,21.8362 C89.4934591,21.1023404 91.1449742,20.7197439 93.0722924,22.5007965 C94.1953227,23.5397439 94.8807015,24.7419544 95.1399894,24.9810772 C95.2721106,25.1031123 95.4306561,25.0750772 95.53305,25.0816737 L95.6189288,25.2498842 L93.5314136,26.0826912 L93.4422318,25.8683053 C93.4752621,25.8336737 93.5314136,25.797393 93.5760045,25.7495684 C93.683353,25.6308316 93.1400045,24.5374632 92.3472773,23.8052526 C92.0533076,23.5314982 91.0012924,22.5601649 90.51905,23.0779895 C89.7411864,23.917393 94.4067167,26.6285509 92.5025197,28.6833579 C91.6486864,29.6035684 90.1127773,29.6744807 88.3027167,28.0022702 C87.1697773,26.9534281 86.2383227,25.3043053 86.1441864,25.2169018 C86.0384894,25.1196035 85.8782924,25.1245509 85.7164439,25.1311474 L85.6206561,24.9744807 L87.5743985,23.8415333 Z" id="Fill-26" fill="#004288"></path>
            <path d="M54.093397,29.1342281 C41.8275939,29.1342281 31.8805182,33.994193 31.8805182,39.9904035 C31.8805182,45.986614 41.8275939,50.8498772 54.093397,50.8498772 L54.093397,29.1342281 Z" id="Fill-28" fill="#FEFEFE"></path>
            <path d="M54.0981864,29.1342281 C66.3672924,29.1342281 76.3110652,33.994193 76.3110652,39.9904035 C76.3110652,45.986614 66.3672924,50.8498772 54.0981864,50.8498772 L54.0981864,29.1342281 Z" id="Fill-30" fill="#7989BB"></path>
          </g>
          <g id="Group-35" transform="translate(18.000000, 20.000000)">
            <mask id="mask-4" fill="white">
              <use xlink:href="#path-3"></use>
            </mask>
            <g id="Clip-34"></g>
            <path d="M30.2432727,12.535 C29.7965455,17.315 31.0565455,22.0916667 33.5356364,29.0816667 C33.5356364,29.0816667 26.9132727,15.8916667 13.2463636,15.895 C6.99218182,15.895 2.42509091,17.9616667 0.623454545,21.285 C1.22236364,28.32 8.52872727,34.3766667 19.062,37.5216667 C17.9836364,37.185 9.702,34.3833333 10.6265455,28.3516667 C11.0258182,25.76 13.8125455,24.7283333 17.5598182,24.745 C22.2627273,24.7716667 29.6918182,27.7283333 29.6918182,31.2266667 C29.6918182,31.2266667 29.6705455,34.1533333 24.2329091,34.3766667 C24.2329091,34.3766667 24.2885455,36.54 30.0043636,36.3366667 C30.0043636,36.3366667 32.2183636,39.5166667 35.6007273,39.83 L35.6007273,0.876666667 C34.2114545,1.50666667 30.8814545,5.72333333 30.2432727,12.535" id="Fill-33" mask="url(#mask-4)"></path>
          </g>
          <g id="Group-38" transform="translate(54.000000, 20.000000)">
            <mask id="mask-6" fill="white">
              <use xlink:href="#path-5"></use>
            </mask>
            <g id="Clip-37"></g>
            <path d="M0.249043478,39.83 C3.66408696,39.5166667 5.89617391,36.3366667 5.89617391,36.3366667 C11.6672174,36.54 11.7217391,34.3766667 11.7217391,34.3766667 C6.23156522,34.1533333 6.21173913,31.2266667 6.21173913,31.2266667 C6.21173913,27.7283333 13.7126087,24.7716667 18.4593043,24.745 C22.2444348,24.7283333 25.0597391,25.76 25.457913,28.3516667 C26.4244348,34.5766667 17.4911304,37.3583333 16.86,37.5466667 C27.5413043,34.41 34.9513043,28.3416667 35.5626087,21.2933333 C33.7501739,17.9633333 29.134,15.895 22.8144348,15.895 C9.01547826,15.8916667 2.33078261,29.0816667 2.33078261,29.0816667 C4.83217391,22.0916667 6.106,17.315 5.65495652,12.535 C5.01226087,5.725 1.65008696,1.50833333 0.249043478,0.876666667 L0.249043478,39.83 Z" id="Fill-36" mask="url(#mask-6)"></path>
          </g>
          <g id="Group-75" transform="translate(18.000000, 63.000000)" fill="#004288">
            <path d="M2.89438667,5.73083333 L4.93843111,5.73083333 C5.66363111,5.73083333 6.02869778,5.48583333 6.02869778,4.9125 C6.02869778,4.37916667 5.66363111,4.16416667 4.93843111,4.16416667 L2.89438667,4.16416667 L2.89438667,5.73083333 Z M2.89438667,9.3975 C2.89438667,9.51916667 2.93385333,9.6125 3.27096444,9.64083333 L3.27096444,9.80416667 L0.50172,9.80416667 L0.50172,9.64083333 C0.837186667,9.6125 0.876653333,9.51916667 0.876653333,9.3975 L0.876653333,3.04583333 C0.876653333,2.9225 0.837186667,2.8275 0.50172,2.80083333 L0.50172,2.6375 L5.31500889,2.6375 C7.00878667,2.6375 7.88198667,3.69916667 7.88198667,4.9125 C7.88198667,6.12583333 7.00878667,7.17416667 5.31500889,7.17416667 L2.89438667,7.17416667 L2.89438667,9.3975 Z" id="Fill-39"></path>
            <path d="M11.8016844,5.6625 L14.0611511,5.6625 C14.8537733,5.6625 15.0955067,5.30916667 15.0955067,4.9125 C15.0955067,4.5175 14.8537733,4.16416667 14.0611511,4.16416667 L11.8016844,4.16416667 L11.8016844,5.6625 Z M11.8016844,9.3975 C11.8016844,9.51916667 11.8411511,9.6125 12.1782622,9.64083333 L12.1782622,9.80416667 L9.41066222,9.80416667 L9.41066222,9.64083333 C9.74612889,9.6125 9.78559556,9.51916667 9.78559556,9.3975 L9.78559556,3.04583333 C9.78559556,2.9225 9.74612889,2.8275 9.41066222,2.80083333 L9.41066222,2.6375 L14.3291956,2.6375 C16.3189733,2.6375 17.1658622,3.34416667 17.1658622,4.90083333 C17.1658622,6.1525 16.35844,6.82083333 15.2451511,7.13416667 L16.8303956,9.3975 C16.95044,9.5725 17.0721289,9.64083333 17.2184844,9.64083333 L17.2184844,9.80416667 L14.4229289,9.80416667 L14.4229289,9.64083333 C14.61204,9.62583333 14.7205733,9.56083333 14.7205733,9.3975 C14.7205733,9.2725 13.29484,7.3925 13.1205289,7.10583333 L11.8016844,7.10583333 L11.8016844,9.3975 Z" id="Fill-41"></path>
            <path d="M24.8367022,0.157166667 L22.8617244,2.14716667 L21.4754578,2.14716667 L22.7515467,0.157166667 L24.8367022,0.157166667 Z M24.5143911,7.18716667 L24.3532356,7.18716667 C24.3121244,7.0105 24.2183911,6.8755 23.9503467,6.8755 L21.4475022,6.8755 L21.4475022,8.14216667 L25.7641689,8.14216667 C25.9105244,8.14216667 25.9647911,8.07383333 26.0059022,7.73383333 L26.1670578,7.73383333 L26.1670578,10.1055 L26.0059022,10.1055 C25.9647911,9.87383333 25.9105244,9.80383333 25.7641689,9.80383333 L19.05648,9.80383333 L19.05648,9.6405 C19.3919467,9.61216667 19.4330578,9.5205 19.4330578,9.39716667 L19.4330578,3.0455 C19.4330578,2.92216667 19.3919467,2.82716667 19.05648,2.8005 L19.05648,2.63716667 L25.7641689,2.63716667 C25.9105244,2.63716667 25.9647911,2.56883333 26.0059022,2.2555 L26.1670578,2.2555 L26.1670578,4.62716667 L26.0059022,4.62716667 C25.9647911,4.31216667 25.9105244,4.24383333 25.7641689,4.24383333 L21.4475022,4.24383333 L21.4475022,5.37716667 L23.9503467,5.37716667 C24.2183911,5.37716667 24.3121244,5.23883333 24.3532356,5.06383333 L24.5143911,5.06383333 L24.5143911,7.18716667 Z" id="Fill-43"></path>
            <path d="M30.4156444,5.73083333 L32.4596889,5.73083333 C33.1848889,5.73083333 33.5483111,5.48583333 33.5483111,4.9125 C33.5483111,4.37916667 33.1848889,4.16416667 32.4596889,4.16416667 L30.4156444,4.16416667 L30.4156444,5.73083333 Z M30.4156444,9.3975 C30.4156444,9.51916667 30.4551111,9.6125 30.7922222,9.64083333 L30.7922222,9.80416667 L28.0213333,9.80416667 L28.0213333,9.64083333 C28.3584444,9.6125 28.3979111,9.51916667 28.3979111,9.3975 L28.3979111,3.04583333 C28.3979111,2.9225 28.3584444,2.8275 28.0213333,2.80083333 L28.0213333,2.6375 L32.8362667,2.6375 C34.5300444,2.6375 35.4032444,3.69916667 35.4032444,4.9125 C35.4032444,6.12583333 34.5300444,7.17416667 32.8362667,7.17416667 L30.4156444,7.17416667 L30.4156444,9.3975 Z" id="Fill-45"></path>
            <path d="M38.2749378,7.16066667 L40.7761378,7.16066667 L39.4704489,3.919 L38.2749378,7.16066667 Z M37.9378267,8.25233333 C37.5892044,9.24566667 37.5086267,9.42066667 37.5086267,9.504 C37.5086267,9.58733333 37.5628933,9.64066667 37.75036,9.64066667 L37.75036,9.804 L35.3692044,9.804 L35.3692044,9.64066667 C35.55996,9.599 35.6388933,9.54566667 35.7211156,9.329 C35.84116,9.014 38.1137822,3.019 38.1137822,2.93566667 C38.1137822,2.84066667 37.9657822,2.814 37.8440933,2.80066667 L37.8440933,2.63733333 L41.3533378,2.63733333 L41.3533378,2.80066667 C41.2053378,2.814 41.1116044,2.84066667 41.1116044,2.97733333 C41.1116044,3.08566667 42.7642711,7.16066667 43.5996489,9.23066667 C43.7328489,9.56066667 43.8134267,9.64066667 43.9762267,9.64066667 L43.9762267,9.804 L41.3253822,9.804 L41.3253822,9.64066667 C41.5144933,9.62566667 41.5819156,9.56066667 41.5819156,9.47733333 C41.5819156,9.42066667 41.1806711,8.42733333 41.1264044,8.25233333 L37.9378267,8.25233333 Z" id="Fill-47"></path>
            <path d="M47.49764,5.6625 L49.7587511,5.6625 C50.5497289,5.6625 50.7931067,5.30916667 50.7931067,4.9125 C50.7931067,4.5175 50.5497289,4.16416667 49.7587511,4.16416667 L47.49764,4.16416667 L47.49764,5.6625 Z M47.49764,9.3975 C47.49764,9.51916667 47.5403956,9.6125 47.8758622,9.64083333 L47.8758622,9.80416667 L45.1066178,9.80416667 L45.1066178,9.64083333 C45.4420844,9.6125 45.4815511,9.51916667 45.4815511,9.3975 L45.4815511,3.04583333 C45.4815511,2.9225 45.4420844,2.8275 45.1066178,2.80083333 L45.1066178,2.6375 L50.0267956,2.6375 C52.0165733,2.6375 52.8651067,3.34416667 52.8651067,4.90083333 C52.8651067,6.1525 52.0543956,6.82083333 50.9411067,7.13416667 L52.5279956,9.3975 C52.64804,9.5725 52.7713733,9.64083333 52.9160844,9.64083333 L52.9160844,9.80416667 L50.1205289,9.80416667 L50.1205289,9.64083333 C50.3079956,9.62583333 50.4165289,9.56083333 50.4165289,9.3975 C50.4165289,9.2725 48.99244,7.3925 48.8181289,7.10583333 L47.49764,7.10583333 L47.49764,9.3975 Z" id="Fill-49"></path>
            <path d="M60.5125956,0.157166667 L58.5376178,2.14716667 L57.15464,2.14716667 L58.4307289,0.157166667 L60.5125956,0.157166667 Z M60.1919289,7.18716667 L60.0307733,7.18716667 C59.9896622,7.0105 59.8959289,6.8755 59.62624,6.8755 L57.1266844,6.8755 L57.1266844,8.14216667 L61.4417067,8.14216667 C61.5913511,8.14216667 61.6439733,8.07383333 61.6850844,7.73383333 L61.84624,7.73383333 L61.84624,10.1055 L61.6850844,10.1055 C61.6439733,9.87383333 61.5913511,9.80383333 61.4417067,9.80383333 L54.7340178,9.80383333 L54.7340178,9.6405 C55.06784,9.61216667 55.1105956,9.5205 55.1105956,9.39716667 L55.1105956,3.0455 C55.1105956,2.92216667 55.06784,2.82716667 54.7340178,2.8005 L54.7340178,2.63716667 L61.4417067,2.63716667 C61.5913511,2.63716667 61.6439733,2.56883333 61.6850844,2.2555 L61.84624,2.2555 L61.84624,4.62716667 L61.6850844,4.62716667 C61.6439733,4.31216667 61.5913511,4.24383333 61.4417067,4.24383333 L57.1266844,4.24383333 L57.1266844,5.37716667 L59.62624,5.37716667 C59.8959289,5.37716667 59.9896622,5.23883333 60.0307733,5.06383333 L60.1919289,5.06383333 L60.1919289,7.18716667 Z" id="Fill-51"></path>
            <path d="M64.2671911,6.97033333 L64.40368,7.03866667 C64.37408,7.107 64.37408,7.202 64.37408,7.32366667 C64.37408,7.692 65.8113244,8.30533333 67.2140356,8.30533333 C68.5559022,8.30533333 69.1610578,7.977 69.1610578,7.37866667 C69.1610578,6.372 63.6225689,7.48866667 63.6225689,4.85533333 C63.6225689,3.497 64.9151022,2.55533333 66.8884356,2.55533333 C68.7302133,2.55533333 70.0605689,3.127 70.4256356,3.127 C70.5983022,3.127 70.6920356,3.032 70.7857689,2.922 L70.9354133,2.977 L70.0095911,4.87366667 L69.8484356,4.79033333 L69.8484356,4.642 C69.8484356,4.29866667 68.3141689,3.91866667 67.0512356,3.91866667 C65.8820356,3.91866667 65.4775022,4.24366667 65.4775022,4.55866667 C65.4775022,5.772 71.0423022,4.28366667 71.0423022,7.42033333 C71.0423022,8.59033333 70.1707467,9.88533333 67.2535022,9.88533333 C65.0088356,9.88533333 64.0123022,9.25866667 63.7031467,9.25866667 C63.5962578,9.25866667 63.5140356,9.35366667 63.4351022,9.43533333 L63.2739467,9.397 L64.2671911,6.97033333 Z" id="Fill-53"></path>
            <path d="M1.75264889,20.743 L3.02544889,20.743 L2.36109333,19.0913333 L1.75264889,20.743 Z M1.58162667,21.298 C1.40402667,21.8046667 1.36291556,21.8946667 1.36291556,21.9346667 C1.36291556,21.978 1.38922667,22.0063333 1.48460444,22.0063333 L1.48460444,22.0896667 L0.274293333,22.0896667 L0.274293333,22.0063333 C0.371315556,21.9846667 0.412426667,21.9563333 0.451893333,21.8463333 C0.512737778,21.6863333 1.67042667,18.6363333 1.67042667,18.593 C1.67042667,18.5446667 1.59478222,18.5313333 1.53393778,18.523 L1.53393778,18.4413333 L3.31980444,18.4413333 L3.31980444,18.523 C3.24416,18.5313333 3.19647111,18.5446667 3.19647111,18.6163333 C3.19647111,18.6696667 4.03678222,20.743 4.46269333,21.798 C4.53011556,21.963 4.56958222,22.0063333 4.65509333,22.0063333 L4.65509333,22.0896667 L3.30336,22.0896667 L3.30336,22.0063333 C3.40202667,21.998 3.43491556,21.963 3.43491556,21.923 C3.43491556,21.8946667 3.22936,21.3863333 3.20304889,21.298 L1.58162667,21.298 Z" id="Fill-55"></path>
            <path d="M8.52710222,18.6491667 C8.52710222,18.5858333 8.50408,18.5375 8.33470222,18.5241667 L8.33470222,18.4408333 L9.74399111,18.4408333 L9.74399111,18.5241667 C9.57132444,18.5375 9.55323556,18.5858333 9.55323556,18.6491667 L9.55323556,20.5075 C9.55323556,21.7291667 8.71128,22.1275 7.66376889,22.1275 C6.61790222,22.1275 5.77594667,21.7291667 5.77594667,20.5075 L5.77594667,18.6491667 C5.77594667,18.5858333 5.75621333,18.5375 5.58354667,18.5241667 L5.58354667,18.4408333 L6.99283556,18.4408333 L6.99283556,18.5241667 C6.82181333,18.5375 6.80043556,18.5858333 6.80043556,18.6491667 L6.80043556,20.5075 C6.80043556,21.0425 7.11616889,21.2558333 7.66376889,21.2558333 C8.21136889,21.2558333 8.52710222,21.0425 8.52710222,20.5075 L8.52710222,18.6491667 Z" id="Fill-57"></path>
            <path d="M14.5862222,18.5026667 C14.5862222,19.7843333 15.4462667,20.7526667 16.8177333,20.7526667 C16.9788889,20.7526667 17.2206222,20.781 17.3571111,20.6993333 C16.9788889,19.636 15.9560444,19.6493333 15.9560444,19.526 C15.9560444,19.296 16.7782667,19.2276667 16.9509333,19.2276667 C17.5034667,19.2276667 18.0017333,19.541 18.4309333,20.0443333 C18.7269333,19.8543333 18.9966222,19.1326667 18.9966222,18.5026667 C18.9966222,17.2226667 17.9622667,16.501 16.7914222,16.501 C15.6205778,16.501 14.5862222,17.2226667 14.5862222,18.5026667 Z M19.1429778,23.641 L19.0492444,23.5043333 C19.1035111,23.4376667 19.1840889,23.3543333 19.1840889,23.2593333 C19.1840889,23.0676667 18.4983556,22.2526667 18.3240444,21.951 C17.8537333,22.101 17.3275111,22.1693333 16.7914222,22.1693333 C14.5056444,22.1693333 12.5980889,20.8893333 12.5980889,18.5026667 C12.5980889,16.1193333 14.5056444,14.8393333 16.7914222,14.8393333 C19.0755556,14.8393333 20.9864,16.1193333 20.9864,18.5026667 C20.9864,19.8143333 20.4075556,20.7943333 19.5064,21.3926667 C19.7086667,21.611 20.2316,22.3593333 20.4075556,22.3593333 C20.5292444,22.3593333 20.5966667,22.3193333 20.6904,22.2643333 L20.7709778,22.4276667 L19.1429778,23.641 Z" id="Fill-59"></path>
            <path d="M28.2999022,15.3305 C28.2999022,15.2071667 28.2587911,15.1121667 27.9233244,15.0855 L27.9233244,14.9221667 L30.6925689,14.9221667 L30.6925689,15.0855 C30.3571022,15.1121667 30.3143467,15.2071667 30.3143467,15.3305 L30.3143467,18.9805 C30.3143467,21.3788333 28.66168,22.1688333 26.6061244,22.1688333 C24.54728,22.1688333 22.8946133,21.3788333 22.8946133,18.9805 L22.8946133,15.3305 C22.8946133,15.2071667 22.8551467,15.1121667 22.51968,15.0855 L22.51968,14.9221667 L25.2856356,14.9221667 L25.2856356,15.0855 C24.9501689,15.1121667 24.9107022,15.2071667 24.9107022,15.3305 L24.9107022,18.9805 C24.9107022,20.0321667 25.5290133,20.4538333 26.6061244,20.4538333 C27.6815911,20.4538333 28.2999022,20.0321667 28.2999022,18.9805 L28.2999022,15.3305 Z" id="Fill-61"></path>
            <path d="M38.1673911,12.4406667 L36.1924133,14.4323333 L34.8077911,14.4323333 L36.08388,12.4406667 L38.1673911,12.4406667 Z M37.84508,19.474 L37.6839244,19.474 C37.6428133,19.2956667 37.54908,19.1606667 37.2810356,19.1606667 L34.7781911,19.1606667 L34.7781911,20.4273333 L39.0965022,20.4273333 C39.2428578,20.4273333 39.29548,20.3573333 39.3349467,20.0173333 L39.5010356,20.0173333 L39.5010356,22.3873333 L39.3349467,22.3873333 C39.29548,22.1573333 39.2428578,22.089 39.0965022,22.089 L32.3871689,22.089 L32.3871689,21.9256667 C32.7226356,21.899 32.7637467,21.8023333 32.7637467,21.679 L32.7637467,15.3306667 C32.7637467,15.2073333 32.7226356,15.1123333 32.3871689,15.0856667 L32.3871689,14.9223333 L39.0965022,14.9223333 C39.2428578,14.9223333 39.29548,14.854 39.3349467,14.5406667 L39.5010356,14.5406667 L39.5010356,16.9106667 L39.3349467,16.9106667 C39.29548,16.5973333 39.2428578,16.529 39.0965022,16.529 L34.7781911,16.529 L34.7781911,17.6606667 L37.2810356,17.6606667 C37.54908,17.6606667 37.6428133,17.524 37.6839244,17.3456667 L37.84508,17.3456667 L37.84508,19.474 Z" id="Fill-63"></path>
            <path d="M43.8265822,20.6438333 L46.1140044,20.6438333 C47.0546267,20.6438333 47.42956,20.4271667 47.42956,19.8271667 C47.42956,19.2271667 47.0546267,19.0088333 46.1140044,19.0088333 L43.8265822,19.0088333 L43.8265822,20.6438333 Z M43.8265822,17.6205 L45.6568489,17.6205 C46.8128933,17.6205 47.1088933,17.5355 47.1088933,16.9921667 C47.1088933,16.4471667 46.8128933,16.3655 45.6568489,16.3655 L43.8265822,16.3655 L43.8265822,17.6205 Z M41.8104933,15.3305 C41.8104933,15.2071667 41.7710267,15.1121667 41.43556,15.0855 L41.43556,14.9221667 L46.5580044,14.9221667 C48.0084044,14.9221667 49.07236,15.4671667 49.07236,16.8155 C49.07236,17.6321667 48.5313378,18.1371667 47.7798267,18.3005 L47.7798267,18.3271667 C48.6793378,18.5738333 49.3404044,19.0655 49.3404044,20.0721667 C49.3404044,21.1621667 48.5313378,22.0888333 46.6237822,22.0888333 L41.43556,22.0888333 L41.43556,21.9255 C41.7710267,21.8988333 41.8104933,21.8021667 41.8104933,21.6788333 L41.8104933,15.3305 Z" id="Fill-65"></path>
            <path d="M56.5187333,19.4735 L56.3575778,19.4735 C56.3164667,19.2968333 56.2227333,19.1601667 55.9546889,19.1601667 L53.4534889,19.1601667 L53.4534889,20.4268333 L57.7685111,20.4268333 C57.9181556,20.4268333 57.9691333,20.3585 58.0118889,20.0185 L58.1730444,20.0185 L58.1730444,22.3868333 L58.0118889,22.3868333 C57.9691333,22.1568333 57.9181556,22.0885 57.7685111,22.0885 L51.0608222,22.0885 L51.0608222,21.9251667 C51.3962889,21.8985 51.4374,21.8018333 51.4374,21.6785 L51.4374,15.3301667 C51.4374,15.2068333 51.3962889,15.1118333 51.0608222,15.0851667 L51.0608222,14.9218333 L57.7685111,14.9218333 C57.9181556,14.9218333 57.9691333,14.8535 58.0118889,14.5418333 L58.1730444,14.5418333 L58.1730444,16.9101667 L58.0118889,16.9101667 C57.9691333,16.5968333 57.9181556,16.5285 57.7685111,16.5285 L53.4534889,16.5285 L53.4534889,17.6601667 L55.9546889,17.6601667 C56.2227333,17.6601667 56.3164667,17.5251667 56.3575778,17.3451667 L56.5187333,17.3451667 L56.5187333,19.4735 Z" id="Fill-67"></path>
            <path d="M66.4672933,17.5651667 L66.3324489,17.4685 C66.3472489,17.4135 66.3604044,17.3585 66.3604044,17.2635 C66.3604044,16.9918333 65.3260489,16.6368333 64.18316,16.6368333 C63.0928933,16.6368333 61.68196,17.1135 61.68196,18.5018333 C61.68196,19.8951667 63.0928933,20.3718333 64.18316,20.3718333 C64.6534711,20.3718333 66.4409822,20.0035 66.4409822,19.6101667 C66.4409822,19.5251667 66.3867156,19.4735 66.3604044,19.4035 L66.5084044,19.3101667 L67.8946711,21.4485 L67.7302267,21.5435 C67.69076,21.4485 67.6364933,21.4335 67.54276,21.4335 C67.2747156,21.4335 66.0232933,22.1685 64.0220044,22.1685 C61.8694267,22.1685 59.5852933,20.9435 59.5852933,18.5018333 C59.5852933,16.0668333 61.8694267,14.8385 64.0220044,14.8385 C65.0974711,14.8385 65.8621378,14.9768333 66.3998711,15.1251667 C66.9244489,15.2751667 67.1924933,15.3835 67.3289822,15.3835 C67.4079156,15.3835 67.4753378,15.3435 67.5296044,15.2751667 L67.6776044,15.3168333 L66.4672933,17.5651667 Z" id="Fill-69"></path>
            <polygon id="Fill-71" points="71.0585822 17.046 70.6491156 17.046 70.6491156 15.2626667 70.6425378 15.2626667 70.2495156 17.046 69.8186711 17.046 69.4355156 15.2626667 69.4289378 15.2626667 69.4289378 17.046 69.0178267 17.046 69.0178267 14.9126667 69.65916 14.9126667 70.0406711 16.5943333 70.0472489 16.5943333 70.4221822 14.9126667 71.0585822 14.9126667"></polygon>
            <path d="M71.6295333,17.046 L72.5405556,17.046 C73.2361556,17.046 73.4137556,16.386 73.4137556,15.926 C73.4137556,15.5243333 73.2674,14.9126667 72.557,14.9126667 L71.6295333,14.9126667 L71.6295333,17.046 Z M72.0603778,15.2793333 L72.4797111,15.2793333 C72.6671778,15.2793333 72.9664667,15.331 72.9664667,15.961 C72.9664667,16.311 72.8431333,16.6743333 72.4862889,16.6743333 L72.0603778,16.6743333 L72.0603778,15.2793333 Z" id="Fill-73"></path>
          </g>
        </g>
      </g>
    </g>
  </g>
</svg>
