<?xml version="1.0" encoding="UTF-8"?>
<svg width="182px" height="182px" viewBox="0 0 182 182" version="1.1" xmlns="http://www.w3.org/2000/svg" xmlns:xlink="http://www.w3.org/1999/xlink">
    <!-- Generator: Sketch 52.3 (67297) - http://www.bohemiancoding.com/sketch -->
    <title>logo-valens</title>
    <desc>Created with Sketch.</desc>
    <defs>
        <polygon id="path-1" points="0 0.145108108 168.862973 0.145108108 168.862973 169 0 169"></polygon>
    </defs>
    <g id="Page-1" stroke="none" stroke-width="1" fill="none" fill-rule="evenodd">
        <g id="accueil" transform="translate(-108.000000, -26.000000)">
            <g id="header" transform="translate(108.000000, 26.000000)">
                <g id="logo-valens">
                    <circle id="Oval" fill="#FFFFFF" cx="91" cy="91" r="91"></circle>
                    <g id="Group-38" transform="translate(7.000000, 7.000000)">
                        <path d="M32.6932603,111.819549 L36.0484083,116.57472 L35.3696497,117.075335 L34.8147522,116.286984 C34.4355723,115.746935 34.1409482,115.615599 33.8522694,115.82714 C33.6554129,115.966163 33.4628502,116.272614 33.2986931,116.531276 L28.3531693,124.235997 L35.9486588,122.189425 C36.8133741,121.96084 37.1129526,121.835185 37.4115403,121.621973 C38.1263011,121.097965 37.4954355,120.076016 37.0845472,119.500877 L37.7619845,119.007614 L40.6616541,123.105436 L39.9776109,123.596026 C39.2113239,122.510246 38.7089435,122.479501 37.3177362,122.836415 L25.8472126,125.796992 L25.4135338,125.182754 L32.0723036,114.693572 C32.8058913,113.534605 32.7979642,113.42566 32.0118594,112.308467 L32.6932603,111.819549 Z" id="Fill-1" fill="#669026"></path>
                        <path d="M49.7448674,140.136166 L50.9230781,134.474061 L46.0074257,137.80498 L49.7448674,140.136166 Z M39.8626037,139.289737 C40.7432692,139.821732 41.5377492,139.708875 42.3592476,139.145241 L52.7203197,132.150376 L53.3684211,132.551574 L50.7763575,145.167772 C50.6272429,145.87949 50.8543349,146.160002 51.7397884,146.70798 L51.2678201,147.398496 L46.3371195,144.321343 L46.8128499,143.638654 L47.2157329,143.884918 C48.1818999,144.491607 48.5745228,144.536946 48.7458678,144.27209 C48.8395775,144.134117 48.9209749,143.879373 49.039651,143.383584 L49.5246155,141.095127 L45.1790872,138.381008 L43.9075088,139.324638 C43.4598229,139.653751 43.1848501,139.880117 43.0699361,140.048751 C42.5712913,140.769602 43.1554376,141.32606 44.1133964,141.949058 L43.6386921,142.640553 L39.3909774,139.982863 L39.8626037,139.289737 Z" id="Fill-3" fill="#669026"></path>
                        <path d="M67.4645658,141.045113 L73.7721221,142.21398 L73.6026478,143.030767 L72.5584787,142.831937 C71.809679,142.700815 71.4510161,142.839534 71.2988351,143.564172 L69.3069934,153.433323 C69.1748727,154.077372 69.4301217,154.197265 70.5711333,154.404682 C74.1529204,155.072512 75.1403675,155.075814 76.745877,151.353538 L77.5112782,151.492587 L76.1648223,156.293233 L64.8045113,154.194622 L64.96776,153.37156 L66.0133126,153.563454 C66.7603829,153.701512 67.1218127,153.564775 67.2712268,152.835183 L69.2246773,143.185339 C69.3702869,142.454425 69.0890979,142.197136 68.3392607,142.054124 L67.2950915,141.867845 L67.4645658,141.045113 Z" id="Fill-5" fill="#669026"></path>
                        <path d="M90.2180451,143.239644 L101.328757,141.045113 L102.536944,145.657109 L101.800481,145.80223 C100.366615,142.253024 99.4158226,142.270097 95.795602,142.986177 C94.6875687,143.199917 94.4478677,143.327964 94.5753966,143.956709 L95.4567488,148.280107 L96.1247736,148.148776 C97.7178844,147.837195 98.3171371,147.000291 98.0620791,145.189901 L98.8866775,145.028365 L100.099204,150.957277 L99.2732706,151.12538 C98.9451005,149.512643 98.0757668,148.614342 96.6392296,148.896046 L95.6236715,149.100593 L96.6238727,153.979847 C96.7514016,154.608592 97.025155,154.634858 98.1305174,154.418819 C102.41242,153.568455 102.594366,153.140318 102.826722,149.313677 L103.557176,149.165602 L104.195489,154.066526 L92.8834676,156.293233 L92.7228879,155.485551 L93.7357752,155.282317 C94.453543,155.143107 94.7219548,154.878148 94.5797366,154.154189 L92.6163912,144.575603 C92.4664946,143.849346 92.1179599,143.713091 91.393849,143.858539 L90.3903094,144.054221 L90.2180451,143.239644 Z" id="Fill-7" fill="#669026"></path>
                        <path d="M120.989811,130.266718 L125.576714,127.067669 L126.095538,127.78869 C125.349706,128.414065 124.870192,128.949751 124.975019,129.536588 C125.072763,130.123074 125.364934,130.736537 125.969108,131.588239 L132.150376,140.264664 L131.496268,140.708207 L117.24684,135.861812 L117.214258,135.883533 L122.195325,142.875474 C123.122834,144.177726 123.676719,144.614963 125.465512,143.467916 L125.984336,144.185434 L121.372998,147.398496 L120.854173,146.674673 C122.272883,145.616615 122.322464,144.759308 121.393538,143.457756 L115.875232,135.714665 C115.186771,135.492192 114.728152,135.708709 113.85589,136.328128 L113.610821,136.492793 L113.090226,135.773173 L116.442574,133.436687 L129.031056,137.656656 L129.058325,137.637037 L125.015392,131.945947 C123.954015,130.466067 123.264139,129.832984 121.50474,130.98949 L120.989811,130.266718 Z" id="Fill-9" fill="#669026"></path>
                        <path d="M136.466296,111.115153 L136.806329,110.548872 L140.987716,112.950172 L140.595219,113.592968 C138.572073,112.948487 136.152823,113.015901 134.907785,115.081478 C133.949004,116.657626 134.460857,117.966813 135.386192,118.555677 C136.172497,119.057915 137.11849,119.079487 138.442552,117.821535 L140.62473,115.731015 C142.222589,114.205765 143.925376,114.084419 145.576027,115.132713 C147.435879,116.319543 148.069382,118.685113 146.541694,121.218882 C145.749486,122.53953 144.600523,123.410187 143.309251,123.824448 L144.004072,125.26543 L143.683386,125.796992 L139.205905,123.03334 L139.510524,122.380095 C142.319975,123.526139 144.62446,122.786604 145.845233,120.76788 C146.815491,119.157014 146.610225,117.577495 145.158938,116.649873 C144.245407,116.076851 143.37188,116.118311 142.420969,117.050314 L140.186327,119.246338 C138.581254,120.825857 137.061436,121.402924 135.305201,120.28553 C133.197784,118.940951 132.917757,116.751332 134.168042,114.673621 C134.865158,113.517127 135.76131,112.789389 137.057829,112.41052 L136.466296,111.115153 Z" id="Fill-11" fill="#669026"></path>
                        <path d="M84.4940565,35.5350582 C57.5639516,35.5350582 35.6158166,57.4093636 35.5350902,84.3649216 C35.4568101,111.358924 57.3560201,133.384908 84.3525232,133.464592 L84.49825,133.464592 C111.434296,133.464592 133.385926,111.597277 133.464905,84.6480095 C133.502996,71.5672525 128.445193,59.2546771 119.223516,49.9781319 C110.000791,40.7015867 97.7188519,35.5724537 84.6397833,35.5354077 C84.5915571,35.5354077 84.5419331,35.5350582 84.4940565,35.5350582 M84.49825,135.962406 L84.3444855,135.962406 C55.9717901,135.878528 32.9553413,112.72823 33.0378149,84.3575823 C33.1223854,56.0288733 56.1930013,33.037594 84.4940565,33.037594 C84.5461267,33.037594 84.5947023,33.0379435 84.6460736,33.0379435 C98.3933189,33.076737 111.301849,38.4676389 120.993905,48.2173952 C130.68631,57.966802 136.002368,70.9074131 135.96218,84.6553488 C135.879357,112.977068 112.805945,135.962406 84.49825,135.962406" id="Fill-13" fill="#669026"></path>
                        <g id="Group-17">
                            <mask id="mask-2" fill="white">
                                <use xlink:href="#path-1"></use>
                            </mask>
                            <g id="Clip-16"></g>
                            <path d="M84.4293081,3.49302973 C39.8245514,3.49302973 3.47655135,39.7120838 3.34830811,84.3463541 C3.2169027,129.044922 39.4840919,165.518705 84.1939027,165.651868 L84.4373892,165.651868 C129.036876,165.651868 165.382065,129.445111 165.514524,84.8238405 C165.642416,40.1126243 129.372768,3.62794865 84.6654162,3.49338108 C84.5888216,3.49302973 84.5059027,3.49302973 84.4293081,3.49302973 M84.4373892,169.000246 L84.1840649,169.000246 C37.6282541,168.861111 -0.136043243,130.880732 0.000281081081,84.3365162 C0.134145946,37.8625703 37.9862811,0.145002703 84.4293081,0.145002703 C84.5118757,0.145002703 84.5926865,0.145002703 84.6752541,0.145705405 C131.228605,0.285191892 168.995011,38.2764622 168.862903,84.8336784 C168.72447,131.294976 130.874092,169.000246 84.4373892,169.000246" id="Fill-15" fill="#669026" mask="url(#mask-2)"></path>
                        </g>
                        <path d="M54.646823,58.4511278 L79.2841049,58.5237651 L79.2711124,62.0338776 L75.2322022,62.0245385 C72.4640985,62.0138159 71.2680867,62.7187438 71.2656286,64.2001994 C71.2607125,65.2174679 71.8116646,66.6148718 72.2867685,67.7870999 L86.3502664,103.310559 L98.2464757,72.4666734 C99.5966417,68.9596739 99.9084616,67.6355992 99.91408,66.0714754 C99.9288282,62.4108999 94.8642132,62.0771141 91.8496032,62.0684668 L91.8625957,58.5583544 L113.090226,58.6226903 L113.082851,62.1296897 C107.446567,62.1130869 106.10237,63.749848 103.86415,69.3657512 L85.4474636,115.631579 L82.2755391,115.621894 L62.9353325,67.5280268 C60.8186093,62.2241182 60.4256741,61.9792266 54.6390977,61.9615862 L54.646823,58.4511278 Z" id="Fill-18" fill="#BDCD00"></path>
                        <path d="M11.4360902,77.6748912 L12.4904158,71.3076069 L13.3241851,71.4598212 L13.1467376,72.5121155 C13.0250975,73.2651941 13.1748084,73.6290488 13.9073223,73.7558941 L23.9316022,75.5504938 C24.5855848,75.6641333 24.6968654,75.4094002 24.8900192,74.2577148 C25.4878602,70.6372384 25.487526,69.6468028 21.6789212,68.120142 L21.8032347,67.3458647 L26.6842105,68.5958986 L24.7924397,80.0526316 L23.9549945,79.9087578 L24.1311053,78.8540308 C24.2524112,78.1009522 24.1053737,77.7391826 23.3718572,77.6026068 L13.565126,75.8577026 C12.8262627,75.7239069 12.568613,76.0151297 12.4422944,76.764038 L12.2658494,77.8191125 L11.4360902,77.6748912 Z" id="Fill-20" fill="#669026"></path>
                        <path d="M16.518797,55.3473871 L22.3605076,44.4736842 L27.1826553,46.6947838 L26.7935008,47.4177385 C22.7364828,46.1245456 22.0804481,46.9363733 20.1815352,50.4880288 C19.599817,51.5646618 19.5357511,51.8541339 20.1745795,52.1871356 L24.5145857,54.4825983 L24.8631041,53.8332813 C25.7069434,52.2712929 25.4008915,51.1808755 23.6637907,50.1252819 L24.0943135,49.3178071 L30.0517088,52.4595585 L29.6197216,53.2677588 C28.0048952,52.4203819 26.6144824,52.5179608 25.8636302,53.9199778 L25.3320664,54.911728 L30.2351203,57.4973883 C30.8669929,57.8369195 31.076763,57.625438 31.6584812,56.5382854 C33.9103056,52.3489207 33.6672213,51.8976635 30.5268946,49.0178154 L30.9182456,48.2970372 L35.5789474,51.1986501 L29.6369279,62.2631579 L28.8176168,61.8351165 L29.3451536,60.8455428 C29.7240575,60.1378235 29.6911094,59.7264684 28.9563652,59.3470351 L19.3387943,54.2707541 C18.6150328,53.8862423 18.2482098,54.0901061 17.8652789,54.7862175 L17.3366438,55.7765167 L16.518797,55.3473871 Z" id="Fill-22" fill="#669026"></path>
                        <path d="M36.4298722,27.1778779 L36.9034534,26.6842105 L40.525719,30.3161917 L39.9720143,30.8883805 C38.0981464,29.666572 35.6354558,29.0693 33.8741019,30.888017 C32.517457,32.2788648 32.7124811,33.7864042 33.4987146,34.6552296 C34.1656152,35.386279 35.1059586,35.667284 36.7513891,34.7141207 L39.470475,33.1298775 C41.4575387,31.9724129 43.195367,32.3057656 44.5990631,33.8452953 C46.1817586,35.5982142 46.2301737,38.2439513 44.0743392,40.4719978 C42.936585,41.6349152 41.5680069,42.2318237 40.1632879,42.3067099 L40.5025343,44.0011013 L40.050433,44.4736842 L36.22121,40.3691201 L36.6927455,39.770394 C39.2386282,41.7203436 41.7476882,41.5829311 43.468128,39.8125629 C44.8462527,38.390452 45.039913,36.6913348 43.7978278,35.3193903 C43.0283009,34.473467 42.1408049,34.2818891 40.9488395,34.9936716 L38.149971,36.6767937 C36.1455188,37.8946035 34.4758808,38.0803649 32.9849011,36.4346859 C31.2013854,34.4658329 31.4536893,32.1014644 33.2389098,30.2743863 C34.2263045,29.2525167 35.3009827,28.7297673 36.696155,28.6839632 L36.4298722,27.1778779 Z" id="Fill-24" fill="#669026"></path>
                        <path d="M62.2944919,16.1089844 C62.0852549,15.3118198 61.7128199,15.1906803 60.9810058,15.4160219 L59.9657426,15.7267873 L59.7218045,14.829839 L70.7931558,11.4360902 L72.4285714,16.5014913 L71.6782043,16.7294105 C69.9046716,12.8739321 68.9282323,12.9781343 65.4248011,14.0521893 C64.3164291,14.3931475 64.0752396,14.5477937 64.2638621,15.2481203 L65.5337142,20.0152751 L66.1988749,19.8101847 C67.8174553,19.3156849 68.3668313,18.3281581 67.9504187,16.3177569 L68.7897717,16.06885 L70.5337569,22.605968 L69.6889067,22.8607661 C69.2151172,21.0841752 68.2500159,20.1540885 66.7929155,20.5974077 L65.7779958,20.9085413 L67.1821857,26.2029661 C67.3333585,26.7560106 67.63914,27.0045492 68.8131348,26.64739 L69.7390686,26.3609262 L69.9806017,27.2589791 L63.5653747,29.2255639 L63.3214367,28.3249336 L64.3418536,28.0145365 C65.0722934,27.7936133 65.3272258,27.4765885 65.1114609,26.67611 L62.2944919,16.1089844 Z" id="Fill-26" fill="#669026"></path>
                        <path d="M81.904157,10.1654135 L93.8087494,10.6288425 L93.8669746,15.4622201 L93.0844423,15.4345875 C92.5207805,11.5909903 91.544632,11.3845779 87.6596802,11.2330979 C86.4737807,11.1874875 86.1984388,11.2527404 86.1745875,11.9085989 L85.9778145,16.3784245 L86.6908975,16.4060571 C88.4039802,16.4729747 89.2177296,15.7914811 89.4176594,13.9410945 L90.306821,13.9803794 L90.0398971,20.1131559 L89.1482803,20.078199 C89.2222894,18.4132505 88.5674316,17.3166018 87.0272706,17.2590061 L85.9409853,17.2150603 L85.7273761,22.2658367 C85.6905469,22.9240257 85.9662396,23.009254 87.14793,23.0535327 C91.7354422,23.2316466 92.0279711,22.8517813 93.2394756,19.134362 L94.0300752,19.164658 L93.4369501,24.1428571 L81.3233083,23.6704393 L81.3611897,22.8331377 L82.4390569,22.8740872 C83.2096635,22.8980577 83.5558578,22.7039635 83.5891794,21.9592145 L84.0142933,12.0470949 C84.047615,11.2993496 83.7217645,11.0772899 82.9508071,11.0506561 L81.8648725,11.0067102 L81.904157,10.1654135 Z" id="Fill-28" fill="#669026"></path>
                        <path d="M107.231159,20.2054212 C107.739222,20.4240337 108.189788,20.6144835 108.620492,20.7841634 C111.347585,21.8508233 112.491947,21.3857877 113.20665,19.5048756 C113.526193,18.6723176 113.663837,18.0298574 113.33837,17.3687395 C113.002797,16.7062135 112.185297,16.2791975 110.357942,15.5635145 C109.406631,15.1907115 109.113571,15.2755515 108.785665,16.145425 L107.231159,20.2054212 Z M105.483952,12.7067669 L112.131633,15.3047702 C114.157265,16.0968444 116.353993,17.8893963 115.40303,20.363836 C114.613755,22.4263972 112.418769,22.8414441 109.892741,21.9824836 L109.87462,22.0208552 C111.352115,22.765757 111.942765,23.9749902 111.733685,25.6084232 L111.5145,27.4523719 C111.349327,28.8728249 111.507879,29.1671245 111.836483,29.2970247 C112.31179,29.481842 112.710086,28.9189412 113.268328,27.6935145 L114.000455,27.9797173 C113.155077,30.1915404 111.985974,30.8839893 110.489662,30.2971503 C109.404192,29.8761189 108.735486,28.8939469 109.525109,26.1892776 C110.276401,23.6152125 110.156181,22.339093 107.929136,21.4681635 L106.903253,21.0654377 L105.083216,25.8294999 C104.799565,26.5652488 105.030598,26.8943996 105.741468,27.1710976 L106.747489,27.5636143 L106.428991,28.3958203 L100.383459,26.0276945 L100.696381,25.2014731 L101.697523,25.5897655 C102.421286,25.8699837 102.80669,25.7869039 103.090341,25.0479867 L106.831469,15.2723832 C107.11512,14.533466 106.884087,14.2110038 106.169384,13.9293774 L105.163015,13.5368607 L105.483952,12.7067669 Z" id="Fill-30" fill="#669026"></path>
                        <path d="M138.525066,31.4347157 L142.315789,34.8717517 L141.706852,35.5513122 L140.858613,34.778528 C140.278521,34.2490611 139.88467,34.1849923 139.338407,34.7868066 L132.236988,42.7669641 C131.705326,43.3684184 131.806103,43.7632691 132.388688,44.2916562 L133.236927,45.0640805 L132.633332,45.7443609 L127.677081,41.2307541 L128.280321,40.554073 L129.096866,41.3013017 C129.675179,41.8282491 130.083986,41.8919579 130.618497,41.2854645 L138.327429,32.6167479 L138.306775,32.5893928 L125.890865,39.6070795 L125.445736,39.2021506 L130.900175,25.8614551 L130.877385,25.8351797 L124.360332,33.1472947 C123.127501,34.534131 122.658869,35.3623454 124.200085,36.8434851 L123.59827,37.5162069 L119.443609,33.7401105 L120.042931,33.0655891 C121.472331,34.1500785 122.064888,34.2166668 123.941554,32.1103169 L129.515644,25.8484974 C130.044814,25.2445235 129.94012,24.8482332 129.35611,24.3205659 L128.51713,23.5506612 L129.116452,22.8721805 L132.927473,26.3398111 L128.509295,37.0853626 L128.53992,37.1112781 L138.525066,31.4347157 Z" id="Fill-32" fill="#669026"></path>
                        <path d="M147.954477,44.4736842 L153.75188,55.3102957 L149.142808,57.9742511 L148.761332,57.2579327 C152.152927,54.6861732 151.842286,53.7026309 149.947081,50.1714586 C149.38077,49.0939198 149.169002,48.880717 148.525216,49.207724 L144.133076,51.448875 L144.486145,52.0906445 C145.312184,53.6500505 146.394262,54.0105506 148.27139,53.1905119 L148.705623,54.0047884 L142.670629,57.0681389 L142.242298,56.2581841 C143.877406,55.4259007 144.583543,54.2500437 143.83129,52.8527006 L143.301134,51.8666374 L138.345266,54.3904983 C137.694469,54.7171452 137.757557,55.0059775 138.335305,56.0885582 C140.564394,60.2604196 141.087171,60.3220035 145.292262,59.3874403 L145.677796,60.1091608 L140.592064,62.2631579 L134.691729,51.2338715 L135.517769,50.8121476 L136.041284,51.7946094 C136.418702,52.4961621 136.779148,52.694239 137.520702,52.3218543 L147.261991,47.3670487 C147.992108,46.9899821 148.029002,46.5866254 147.665603,45.8818315 L147.132496,44.8968487 L147.954477,44.4736842 Z" id="Fill-34" fill="#669026"></path>
                        <path d="M158.731876,75.4584307 L158.834586,76.1404922 L154.053857,77.2029273 L153.935371,76.4227732 C155.912041,75.4951272 157.73901,73.7393395 157.344951,71.2390356 C157.055281,69.3230533 155.798926,68.6487546 154.704356,68.8424699 C153.767208,69.0037229 153.030782,69.6483822 152.834759,71.5685986 L152.507832,74.7657837 C152.280593,77.0864863 151.050419,78.3835675 149.099594,78.7212462 C146.883938,79.1019726 144.853227,77.6870392 144.368542,74.6147634 C144.120493,73.0135245 144.442721,71.5146124 145.168071,70.2845729 L143.690855,69.6310924 L143.586466,68.9867861 L148.838455,67.9995083 L149.033134,68.7320275 C146.127036,69.8170451 144.830067,72.0273052 145.207343,74.47327 C145.516816,76.4323001 146.6953,77.5303732 148.426271,77.2265683 C149.509093,77.0455556 150.152543,76.3977207 150.272372,74.9870215 L150.557342,71.6811582 C150.761756,69.2990594 151.55323,67.7736835 153.63731,67.4194209 C156.131559,66.985061 157.781973,68.5107898 158.175696,71.0347347 C158.394208,72.4419054 158.180396,73.6440696 157.431214,74.852938 L158.731876,75.4584307 Z" id="Fill-36" fill="#669026"></path>
                    </g>
                </g>
            </g>
        </g>
    </g>
</svg>